<svg width="160" height="49" viewBox="0 0 160 49" fill="none" xmlns="http://www.w3.org/2000/svg">
<g clip-path="url(#clip0_32_459)">
<rect x="0.515789" y="0.515789" width="158.347" height="47.9684" rx="1.54737" fill="#279B24"/>
<rect x="39.9737" width="119.405" height="49" fill="white"/>
<path d="M21.9891 15.8739C23.6597 15.8739 25.3093 16.1216 26.9379 16.6169L27.4542 16.768L26.4216 19.6894L25.9431 19.5509C24.4236 19.1312 23.0384 18.9213 21.7876 18.9213C20.5535 18.9213 19.4957 19.1228 18.6143 19.5257C17.7412 19.9287 17.3046 20.445 17.3046 21.0746C17.3046 21.486 17.4977 21.847 17.8839 22.1576C18.2785 22.4682 18.7864 22.7326 19.4076 22.9509C20.0288 23.1608 20.713 23.3707 21.4602 23.5805C22.2157 23.7904 22.9713 24.0339 23.7268 24.3109C24.4824 24.5879 25.1708 24.9069 25.792 25.2679C26.4132 25.6289 26.9169 26.1116 27.3031 26.7161C27.6977 27.3121 27.8949 28.0005 27.8949 28.7812C27.8949 29.2849 27.8068 29.7844 27.6305 30.2797C27.4626 30.7667 27.173 31.2494 26.7616 31.7279C26.3587 32.2064 25.855 32.6262 25.2505 32.9871C24.6545 33.3397 23.8905 33.6294 22.9587 33.856C22.0352 34.0743 20.9984 34.1834 19.8483 34.1834C18.6982 34.1834 17.6614 34.0785 16.738 33.8686C15.8145 33.6503 14.8365 33.3397 13.8039 32.9368L13.338 32.7605L14.4084 29.7131L14.8995 29.902C17.0234 30.6575 18.7738 31.0353 20.1506 31.0353C21.4434 31.0353 22.4886 30.838 23.2861 30.4435C24.092 30.0489 24.495 29.5284 24.495 28.882C24.495 28.521 24.3732 28.1978 24.1298 27.9124C23.8863 27.6269 23.5589 27.3877 23.1476 27.1946C22.7362 26.9931 22.2619 26.8084 21.7246 26.6405C21.1957 26.4726 20.6375 26.3089 20.0498 26.1494C19.4622 25.9899 18.8745 25.8178 18.2869 25.6331C17.6992 25.4484 17.1367 25.226 16.5995 24.9657C16.0706 24.7055 15.6005 24.4116 15.1891 24.0842C14.7777 23.7568 14.4503 23.3497 14.2069 22.8628C13.9634 22.3675 13.8417 21.8176 13.8417 21.2131C13.8417 19.702 14.5805 18.4344 16.058 17.4102C17.5439 16.386 19.5209 15.8739 21.9891 15.8739Z" fill="white"/>
<path d="M56.2331 21.6555C56.3742 21.6555 56.5051 21.6588 56.626 21.6655C56.7536 21.6655 56.8745 21.6723 56.9887 21.6857C57.1096 21.6991 57.2103 21.7092 57.2909 21.7159C57.3782 21.7226 57.4756 21.7361 57.583 21.7562C57.6972 21.7764 57.7778 21.7932 57.8248 21.8066C57.8785 21.8133 57.9625 21.8334 58.0767 21.867C58.1976 21.8939 58.2714 21.9107 58.2983 21.9174C58.3252 21.9241 58.4024 21.9476 58.53 21.9879C58.6643 22.0282 58.7416 22.0517 58.7617 22.0584L58.3386 23.3177C57.4387 23.0692 56.6462 22.9449 55.9611 22.9449C55.5649 22.9449 55.2123 22.9852 54.9034 23.0658C54.6011 23.1464 54.3661 23.2438 54.1982 23.358C54.037 23.4722 53.9027 23.6065 53.7952 23.7609C53.6945 23.9087 53.6273 24.0397 53.5937 24.1538C53.5669 24.268 53.5534 24.3788 53.5534 24.4863C53.5534 24.7616 53.6945 25.0068 53.9765 25.2217C54.2653 25.4366 54.6213 25.6112 55.0444 25.7455C55.4742 25.8798 55.9376 26.041 56.4346 26.2291C56.9316 26.4104 57.3916 26.6052 57.8147 26.8134C58.2446 27.0148 58.6005 27.3003 58.8826 27.6697C59.1714 28.039 59.3158 28.4655 59.3158 28.9491C59.3158 29.2244 59.2788 29.4931 59.205 29.755C59.1378 30.0102 59.0035 30.2788 58.802 30.5609C58.6072 30.843 58.352 31.0881 58.0364 31.2963C57.7274 31.4978 57.311 31.6657 56.7872 31.8C56.2633 31.9343 55.6623 32.0015 54.9839 32.0015C53.9564 32.0015 52.8281 31.7496 51.5991 31.2459L52.0625 29.9968C52.7542 30.252 53.3184 30.4333 53.7549 30.5408C54.1982 30.6482 54.6314 30.7019 55.0545 30.7019C56.6932 30.7019 57.5125 30.1814 57.5125 29.1405C57.5125 28.9121 57.4319 28.7106 57.2708 28.536C57.1096 28.3614 56.8947 28.2204 56.626 28.1129C56.3574 27.9987 56.0518 27.8846 55.7093 27.7704C55.3735 27.6495 55.0276 27.5387 54.6717 27.438C54.3224 27.3372 53.9765 27.2063 53.634 27.0451C53.2982 26.8772 52.996 26.6958 52.7274 26.5011C52.4587 26.2996 52.2438 26.041 52.0826 25.7254C51.9214 25.4097 51.8409 25.0538 51.8409 24.6575C51.8409 24.4158 51.8778 24.1706 51.9517 23.9221C52.0323 23.6669 52.1767 23.4016 52.3849 23.1263C52.5998 22.8442 52.865 22.5991 53.1807 22.3909C53.4964 22.176 53.9161 22.0013 54.44 21.867C54.9705 21.726 55.5682 21.6555 56.2331 21.6555ZM67.6268 31.6287C66.653 31.8772 65.8941 32.0015 65.3501 32.0015C64.8061 32.0015 64.3461 31.9142 63.97 31.7396C63.5939 31.5649 63.3084 31.3165 63.1137 30.9941C62.9189 30.6717 62.7779 30.3258 62.6906 29.9565C62.61 29.5804 62.5697 29.1505 62.5697 28.667V23.1464H61.2298V21.8469H62.5697V18.9959H64.2218V21.8469H67.2541V23.1464H64.2218V28.6468C64.2218 30.0236 64.7658 30.712 65.8538 30.712C66.0486 30.712 66.5623 30.6415 67.3951 30.5005L67.6268 31.6287ZM76.7337 21.8469H78.3859V31.8H77.2274L76.8748 30.9639C75.6055 31.6556 74.4335 32.0015 73.3589 32.0015C72.815 32.0015 72.3415 31.9175 71.9385 31.7496C71.5356 31.575 71.2233 31.3601 71.0016 31.1049C70.78 30.8497 70.602 30.5273 70.4677 30.1378C70.3334 29.7415 70.2461 29.3654 70.2058 29.0095C70.1722 28.6536 70.1554 28.2472 70.1554 27.7905V21.8469H71.8076V27.9114C71.8076 29.6509 72.5631 30.5206 74.0742 30.5206C74.8533 30.5206 75.7398 30.262 76.7337 29.7449V21.8469ZM81.5189 26.9947C81.5189 26.135 81.6398 25.3627 81.8816 24.6777C82.1233 23.9926 82.4558 23.4319 82.8789 22.9953C83.302 22.5588 83.7956 22.2263 84.3598 21.998C84.9306 21.7629 85.5451 21.6454 86.2033 21.6454C86.9958 21.6454 87.7984 21.8234 88.611 22.1793V16.5782H90.2631V31.8H89.1147L88.8427 31.1754C87.9092 31.7261 86.9354 32.0015 85.9212 32.0015C85.5049 32.0015 85.0985 31.9511 84.7023 31.8504C84.306 31.7496 83.9132 31.575 83.5236 31.3265C83.1341 31.078 82.7916 30.7691 82.4961 30.3997C82.2073 30.0236 81.9722 29.5434 81.7909 28.9591C81.6096 28.3748 81.5189 27.72 81.5189 26.9947ZM86.4652 30.6415C87.1973 30.6415 87.9125 30.4534 88.611 30.0773V23.4285C87.8924 23.1061 87.1704 22.9449 86.4451 22.9449C86.1362 22.9449 85.8373 22.9785 85.5485 23.0457C85.2597 23.1128 84.9642 23.2337 84.662 23.4084C84.3598 23.583 84.0978 23.808 83.8762 24.0833C83.6613 24.3587 83.4833 24.7247 83.3423 25.1814C83.2013 25.6313 83.1307 26.1485 83.1307 26.7328C83.1307 27.3372 83.2046 27.8779 83.3524 28.3547C83.5001 28.8248 83.6882 29.2009 83.9165 29.483C84.1449 29.7651 84.4135 29.9968 84.7224 30.1781C85.0314 30.3594 85.3269 30.4837 85.6089 30.5508C85.891 30.6113 86.1765 30.6415 86.4652 30.6415ZM92.6809 21.8469H94.4942L97.6776 30.2889L100.639 21.8469H102.352L96.6098 37.1493H94.8468L96.8415 32.2936L92.6809 21.8469ZM104.77 16.5782H106.422V22.3204C107.288 21.8704 108.175 21.6454 109.081 21.6454C109.484 21.6454 109.881 21.6958 110.27 21.7965C110.66 21.8905 111.049 22.0618 111.439 22.3103C111.835 22.5521 112.181 22.8576 112.476 23.227C112.772 23.5964 113.01 24.08 113.192 24.6777C113.38 25.2754 113.474 25.9504 113.474 26.7026C113.474 28.3413 113.037 29.6341 112.164 30.581C111.298 31.528 110.173 32.0015 108.789 32.0015C107.883 32.0015 106.993 31.7799 106.12 31.3366L105.918 31.8H104.77V16.5782ZM108.517 23.0155C107.799 23.0155 107.1 23.1934 106.422 23.5494V30.2385C107.14 30.5475 107.849 30.7019 108.547 30.7019C108.856 30.7019 109.155 30.6684 109.444 30.6012C109.733 30.534 110.025 30.4131 110.321 30.2385C110.623 30.0572 110.885 29.8322 111.106 29.5636C111.328 29.2949 111.509 28.939 111.65 28.4957C111.791 28.0525 111.862 27.5521 111.862 26.9947C111.862 26.3634 111.788 25.806 111.64 25.3224C111.492 24.8321 111.304 24.446 111.076 24.1639C110.848 23.8818 110.579 23.6501 110.27 23.4688C109.961 23.2875 109.666 23.1666 109.384 23.1061C109.102 23.0457 108.813 23.0155 108.517 23.0155ZM123.175 21.8469H124.827V31.8H123.669L123.316 30.9639C122.047 31.6556 120.875 32.0015 119.8 32.0015C119.256 32.0015 118.783 31.9175 118.38 31.7496C117.977 31.575 117.664 31.3601 117.443 31.1049C117.221 30.8497 117.043 30.5273 116.909 30.1378C116.775 29.7415 116.687 29.3654 116.647 29.0095C116.613 28.6536 116.597 28.2472 116.597 27.7905V21.8469H118.249V27.9114C118.249 29.6509 119.004 30.5206 120.515 30.5206C121.294 30.5206 122.181 30.262 123.175 29.7449V21.8469ZM127.96 26.9947C127.96 26.135 128.081 25.3627 128.323 24.6777C128.565 23.9926 128.897 23.4319 129.32 22.9953C129.743 22.5588 130.237 22.2263 130.801 21.998C131.372 21.7629 131.986 21.6454 132.645 21.6454C133.437 21.6454 134.24 21.8234 135.052 22.1793V16.5782H136.704V31.8H135.556L135.284 31.1754C134.35 31.7261 133.377 32.0015 132.362 32.0015C131.946 32.0015 131.54 31.9511 131.143 31.8504C130.747 31.7496 130.354 31.575 129.965 31.3265C129.575 31.078 129.233 30.7691 128.937 30.3997C128.648 30.0236 128.413 29.5434 128.232 28.9591C128.051 28.3748 127.96 27.72 127.96 26.9947ZM132.906 30.6415C133.638 30.6415 134.354 30.4534 135.052 30.0773V23.4285C134.334 23.1061 133.612 22.9449 132.886 22.9449C132.577 22.9449 132.278 22.9785 131.99 23.0457C131.701 23.1128 131.405 23.2337 131.103 23.4084C130.801 23.583 130.539 23.808 130.317 24.0833C130.103 24.3587 129.925 24.7247 129.783 25.1814C129.642 25.6313 129.572 26.1485 129.572 26.7328C129.572 27.3372 129.646 27.8779 129.794 28.3547C129.941 28.8248 130.129 29.2009 130.358 29.483C130.586 29.7651 130.855 29.9968 131.164 30.1781C131.473 30.3594 131.768 30.4837 132.05 30.5508C132.332 30.6113 132.618 30.6415 132.906 30.6415ZM144.562 21.6555C144.703 21.6555 144.834 21.6588 144.955 21.6655C145.083 21.6655 145.203 21.6723 145.318 21.6857C145.439 21.6991 145.539 21.7092 145.62 21.7159C145.707 21.7226 145.805 21.7361 145.912 21.7562C146.026 21.7764 146.107 21.7932 146.154 21.8066C146.207 21.8133 146.291 21.8334 146.406 21.867C146.527 21.8939 146.6 21.9107 146.627 21.9174C146.654 21.9241 146.731 21.9476 146.859 21.9879C146.993 22.0282 147.07 22.0517 147.091 22.0584L146.668 23.3177C145.768 23.0692 144.975 22.9449 144.29 22.9449C143.894 22.9449 143.541 22.9852 143.232 23.0658C142.93 23.1464 142.695 23.2438 142.527 23.358C142.366 23.4722 142.232 23.6065 142.124 23.7609C142.023 23.9087 141.956 24.0397 141.923 24.1538C141.896 24.268 141.882 24.3788 141.882 24.4863C141.882 24.7616 142.023 25.0068 142.305 25.2217C142.594 25.4366 142.95 25.6112 143.373 25.7455C143.803 25.8798 144.267 26.041 144.764 26.2291C145.261 26.4104 145.721 26.6052 146.144 26.8134C146.574 27.0148 146.929 27.3003 147.212 27.6697C147.5 28.039 147.645 28.4655 147.645 28.9491C147.645 29.2244 147.608 29.4931 147.534 29.755C147.467 30.0102 147.332 30.2788 147.131 30.5609C146.936 30.843 146.681 31.0881 146.365 31.2963C146.056 31.4978 145.64 31.6657 145.116 31.8C144.592 31.9343 143.991 32.0015 143.313 32.0015C142.285 32.0015 141.157 31.7496 139.928 31.2459L140.391 29.9968C141.083 30.252 141.647 30.4333 142.084 30.5408C142.527 30.6482 142.96 30.7019 143.383 30.7019C145.022 30.7019 145.841 30.1814 145.841 29.1405C145.841 28.9121 145.761 28.7106 145.6 28.536C145.439 28.3614 145.224 28.2204 144.955 28.1129C144.686 27.9987 144.381 27.8846 144.038 27.7704C143.702 27.6495 143.357 27.5387 143.001 27.438C142.651 27.3372 142.305 27.2063 141.963 27.0451C141.627 26.8772 141.325 26.6958 141.056 26.5011C140.788 26.2996 140.573 26.041 140.412 25.7254C140.25 25.4097 140.17 25.0538 140.17 24.6575C140.17 24.4158 140.207 24.1706 140.281 23.9221C140.361 23.6669 140.506 23.4016 140.714 23.1263C140.929 22.8442 141.194 22.5991 141.51 22.3909C141.825 22.176 142.245 22.0013 142.769 21.867C143.299 21.726 143.897 21.6555 144.562 21.6555Z" fill="#279B24"/>
</g>
<rect x="0.515789" y="0.515789" width="158.347" height="47.9684" rx="1.54737" stroke="#279B24" stroke-width="1.03158"/>
<defs>
<clipPath id="clip0_32_459">
</clipPath>
</defs>
</svg>
