<svg width="162" height="48" viewBox="0 0 162 48" fill="none" xmlns="http://www.w3.org/2000/svg">
<g clip-path="url(#clip0_32_411)">
<path d="M0 6.4C0 2.86538 2.86538 0 6.4 0H155.52C159.055 0 161.92 2.86538 161.92 6.4V41.6C161.92 45.1346 159.055 48 155.52 48H6.4C2.86538 48 0 45.1346 0 41.6V6.4Z" fill="black"/>
<path fill-rule="evenodd" clip-rule="evenodd" d="M0 41.6V6.4C0 2.86538 2.86538 0 6.4 0H155.52C159.055 0 161.92 2.86538 161.92 6.4V41.6C161.92 45.1346 159.055 48 155.52 48H6.4C2.86538 48 0 45.1346 0 41.6ZM0.96 41.6V6.4C0.96 3.39557 3.39557 0.96 6.4 0.96H155.52C158.524 0.96 160.96 3.39557 160.96 6.4V41.6C160.96 44.6044 158.524 47.04 155.52 47.04H6.4C3.39557 47.04 0.96 44.6044 0.96 41.6Z" fill="white" fill-opacity="0.3"/>
<path d="M34.1415 29.1463C37.9753 27.0217 40.882 25.403 41.1325 25.2773C41.9337 24.847 42.7615 23.7087 41.1325 22.8246C40.6066 22.5466 37.7747 20.978 34.1415 18.9556L29.105 24.0886L34.1412 29.1463H34.1415Z" fill="#FFD900"/>
<path d="M29.105 24.0886L13.0678 40.4001C13.444 40.4505 13.869 40.3497 14.3703 40.0717C15.4222 39.4908 26.5734 33.3449 34.1417 29.1474L29.105 24.0886Z" fill="#F43249"/>
<path d="M29.105 24.0887L34.1412 18.9805C34.1412 18.9805 15.4982 8.7131 14.37 8.10726C13.9455 7.85252 13.4692 7.7772 13.0431 7.85252L29.105 24.0884V24.0887Z" fill="#00EE76"/>
<path d="M29.1051 24.0888L13.0429 7.85291C12.3909 8.00492 11.84 8.58612 11.84 9.77426V38.478C11.84 39.5662 12.2664 40.3498 13.0676 40.4251L29.1048 24.0885L29.1051 24.0888Z" fill="#00D3FF"/>
<path d="M82.0431 26.0767C79.1616 26.0767 76.7809 28.327 76.7809 31.4124C76.7809 34.4726 79.1366 36.7481 82.0434 36.7481C84.9498 36.7481 87.3053 34.4978 87.3053 31.4124C87.3053 28.327 84.9498 26.0767 82.0431 26.0767ZM82.0431 34.6249C80.4641 34.6249 79.0867 33.2842 79.0867 31.3886C79.0867 29.4666 80.4652 28.1522 82.0431 28.1522C83.621 28.1522 84.9995 29.4666 84.9995 31.3886C84.9995 33.2842 83.621 34.6249 82.0431 34.6249ZM70.5915 26.0767C67.6848 26.0767 65.329 28.327 65.329 31.4124C65.329 34.4726 67.6848 36.7481 70.5915 36.7481C73.498 36.7481 75.8538 34.4978 75.8538 31.4124C75.8538 28.327 73.498 26.0767 70.5912 26.0767H70.5915ZM70.5915 34.6249C69.0122 34.6249 67.6351 33.2842 67.6351 31.3886C67.6351 29.4666 69.0136 28.1522 70.5915 28.1522C72.1705 28.1522 73.5479 29.4666 73.5479 31.3886C73.5479 33.2842 72.1941 34.6249 70.5915 34.6249ZM56.9847 27.7206V29.9709H62.2966C62.1457 31.2352 61.721 32.1708 61.094 32.8035C60.3175 33.5871 59.1147 34.4474 56.9847 34.4474C53.7015 34.4474 51.1715 31.7671 51.1715 28.4541C51.1715 25.141 53.7029 22.4101 56.9847 22.4101C58.7632 22.4101 60.0421 23.1183 60.9942 24.029L62.5721 22.4353C61.2436 21.146 59.4651 20.16 56.9847 20.16C52.4987 20.16 48.7397 23.8768 48.7397 28.4037C48.7397 32.9308 52.4987 36.6476 56.9847 36.6476C59.4151 36.6476 61.22 35.8388 62.6731 34.3206C64.1514 32.8287 64.6025 30.7293 64.6025 29.0353C64.6025 28.5044 64.5528 28.0238 64.4768 27.6189L56.9847 27.7206ZM112.664 29.4653C112.238 28.2766 110.886 26.0767 108.178 26.0767C105.471 26.0767 103.242 28.2264 103.242 31.4124C103.242 34.3959 105.471 36.7481 108.429 36.7481C110.835 36.7481 112.213 35.2562 112.789 34.3959L111.011 33.1823C110.409 34.0678 109.607 34.6487 108.429 34.6487C107.251 34.6487 106.425 34.1179 105.898 33.03L112.889 30.0717L112.664 29.4653ZM105.547 31.2615C105.498 29.2125 107.127 28.1509 108.278 28.1509C109.206 28.1509 109.957 28.6061 110.233 29.2892L105.547 31.2615ZM99.8591 36.3945H102.165V20.7662H99.8591V36.3945ZM96.1012 27.2654H96.0264C95.5004 26.6327 94.5233 26.0767 93.2694 26.0767C90.6382 26.0767 88.2577 28.4289 88.2577 31.4124C88.2577 34.3959 90.6631 36.7232 93.2694 36.7232C94.522 36.7232 95.4993 36.1669 96.0264 35.509H96.1012V36.2677C96.1012 38.3167 95.023 39.4032 93.2944 39.4032C91.891 39.4032 91.0135 38.3668 90.6631 37.5065L88.6591 38.3668C89.2347 39.7831 90.7641 41.5278 93.2944 41.5278C96.0003 41.5278 98.2812 39.9091 98.2812 35.9897V26.4051H96.1012V27.2654ZM93.47 34.6249C91.891 34.6249 90.5635 33.2842 90.5635 31.4138C90.5635 29.5433 91.8921 28.1772 93.47 28.1772C95.0243 28.1772 96.2769 29.5433 96.2769 31.4138C96.2758 33.259 95.023 34.6249 93.47 34.6249ZM123.414 20.7664H117.902V36.3945H120.208V30.4765H123.414C125.971 30.4765 128.476 28.6047 128.476 25.6215C128.476 22.6379 125.971 20.7662 123.414 20.7662V20.7664ZM123.489 28.3031H120.231V22.9409H123.489C125.193 22.9409 126.195 24.3824 126.195 25.6212C126.171 26.8351 125.194 28.3031 123.489 28.3031ZM137.673 26.0515C136.019 26.0515 134.29 26.785 133.589 28.4541L135.619 29.3144C136.07 28.4541 136.872 28.1761 137.724 28.1761C138.927 28.1761 140.13 28.9093 140.155 30.1985V30.3508C139.728 30.098 138.852 29.7433 137.749 29.7433C135.544 29.7433 133.313 30.9824 133.313 33.259C133.313 35.3581 135.118 36.698 137.122 36.698C138.676 36.698 139.528 35.9897 140.054 35.1557H140.129V36.3696H142.358V30.3757C142.333 27.6198 140.304 26.0512 137.673 26.0512V26.0515ZM137.398 34.5997C136.646 34.5997 135.593 34.2198 135.593 33.2853C135.593 32.0714 136.895 31.6162 138.023 31.6162C139.025 31.6162 139.502 31.8438 140.129 32.147C139.953 33.5885 138.725 34.5997 137.398 34.5997ZM150.403 26.4064L147.771 33.1582H147.696L144.966 26.4062H142.485L146.594 35.8637L144.264 41.1493H146.669L152.958 26.4062H150.402L150.403 26.4064ZM129.755 36.3945H132.061V20.7662H129.755V36.3945Z" fill="white"/>
<path d="M53.271 15.8438C52.5747 15.8438 51.933 15.6766 51.3459 15.3421C50.7588 15.0076 50.2912 14.5502 49.943 13.9699C49.6017 13.3828 49.431 12.7309 49.431 12.0141C49.431 11.2973 49.6017 10.6488 49.943 10.0685C50.2912 9.48139 50.7588 9.02059 51.3459 8.68609C51.933 8.35158 52.5747 8.18433 53.271 8.18433C53.824 8.18433 54.3394 8.28331 54.8173 8.48129C55.2951 8.67926 55.6945 8.95574 56.0154 9.31073L55.2166 10.1094C54.9777 9.84321 54.691 9.63841 54.3565 9.49505C54.0288 9.35169 53.6636 9.28001 53.2608 9.28001C52.7898 9.28001 52.3494 9.39265 51.9398 9.61793C51.5302 9.84321 51.2026 10.1641 50.9568 10.5805C50.711 10.9969 50.5882 11.4748 50.5882 12.0141C50.5882 12.5534 50.711 13.0313 50.9568 13.4477C51.2026 13.8641 51.5302 14.185 51.9398 14.4102C52.3494 14.6355 52.7932 14.7482 53.271 14.7482C53.7079 14.7482 54.0732 14.6833 54.3667 14.5536C54.6603 14.4239 54.9231 14.2498 55.1552 14.0314C55.3054 13.8812 55.4317 13.6934 55.5341 13.4682C55.6433 13.2429 55.715 12.9971 55.7491 12.7309H53.2608V11.7069H56.8346C56.8687 11.898 56.8858 12.096 56.8858 12.3008C56.8858 12.765 56.8141 13.2122 56.6707 13.6422C56.5274 14.0655 56.2987 14.4341 55.9846 14.7482C55.2951 15.4786 54.3906 15.8438 53.271 15.8438Z" fill="white"/>
<path d="M57.9537 8.34817H62.4081V9.44385H59.1006V11.4714H62.0804V12.5568H59.1006V14.5843H62.4081V15.68H57.9537V8.34817Z" fill="white"/>
<path d="M65.0625 9.44385H63.0145V8.34817H68.2574V9.44385H66.2094V15.68H65.0625V9.44385Z" fill="white"/>
<path d="M71.2557 8.34817H72.4026V15.68H71.2557V8.34817Z" fill="white"/>
<path d="M75.3045 9.44385H73.2565V8.34817H78.4994V9.44385H76.4514V15.68H75.3045V9.44385Z" fill="white"/>
<path d="M84.7281 15.8438C84.0181 15.8438 83.373 15.6766 82.7927 15.3421C82.2124 15.0008 81.7551 14.5365 81.4206 13.9494C81.0929 13.3624 80.929 12.7172 80.929 12.0141C80.929 11.3109 81.0929 10.6692 81.4206 10.089C81.7551 9.50187 82.2124 9.03766 82.7927 8.69633C83.373 8.35499 84.0181 8.18433 84.7281 8.18433C85.438 8.18433 86.0798 8.35499 86.6532 8.69633C87.2335 9.03766 87.6908 9.50187 88.0254 10.089C88.3599 10.6692 88.5271 11.3109 88.5271 12.0141C88.5271 12.7172 88.3599 13.3624 88.0254 13.9494C87.6977 14.5365 87.2437 15.0008 86.6634 15.3421C86.0832 15.6766 85.438 15.8438 84.7281 15.8438ZM84.7281 14.7482C85.2128 14.7482 85.6565 14.6321 86.0593 14.4C86.462 14.1679 86.7795 13.847 87.0116 13.4374C87.2437 13.021 87.3598 12.5466 87.3598 12.0141C87.3598 11.4816 87.2437 11.0106 87.0116 10.601C86.7795 10.1845 86.462 9.86027 86.0593 9.62817C85.6565 9.39606 85.2128 9.28001 84.7281 9.28001C84.2434 9.28001 83.7996 9.39606 83.3969 9.62817C82.9941 9.86027 82.6732 10.1845 82.4343 10.601C82.2022 11.0106 82.0862 11.4816 82.0862 12.0141C82.0862 12.5466 82.2022 13.021 82.4343 13.4374C82.6732 13.847 82.9941 14.1679 83.3969 14.4C83.7996 14.6321 84.2434 14.7482 84.7281 14.7482Z" fill="white"/>
<path d="M89.5817 8.34817H90.9436L94.2204 13.6832H94.2818L94.2204 12.2701V8.34817H95.357V15.68H94.159L90.7183 10.0685H90.6569L90.7183 11.4816V15.68H89.5817V8.34817Z" fill="white"/>
</g>
<defs>
<clipPath id="clip0_32_411">
<rect width="161.92" height="48" fill="white"/>
</clipPath>
</defs>
</svg>
