<svg width="391" height="445" viewBox="0 0 391 445" fill="none" xmlns="http://www.w3.org/2000/svg">
<path d="M0.999949 72.5172C6.31375 161.23 48.4256 332.207 174.363 306.414C331.784 274.172 328.795 348.621 333.777 369.138C338.758 389.655 363.667 469.965 405.513 494" stroke="#C1E5C0" stroke-width="2"/>
<path d="M0.999949 36.1725C6.31375 124.885 48.4256 295.862 174.363 270.069C331.784 237.828 328.795 312.276 333.777 332.793C338.758 353.31 363.667 433.621 405.513 457.655" stroke="#C1E5C0" stroke-width="2"/>
<path d="M0.999949 0.999982C6.31375 89.7126 48.4256 260.69 174.363 234.897C331.784 202.655 328.795 277.103 333.777 297.621C338.758 318.138 363.667 398.448 405.513 422.483" stroke="#C1E5C0" stroke-width="2"/>
</svg>
