<svg width="633" height="489" viewBox="0 0 633 489" fill="none" xmlns="http://www.w3.org/2000/svg">
<circle cx="65" cy="424" r="65" fill="#C1E6C0"/>
<circle cx="541" cy="65" r="65" fill="#8FDD8D"/>
<mask id="mask0_103_807" style="mask-type:alpha" maskUnits="userSpaceOnUse" x="32" y="41" width="601" height="407">
<path d="M38.8157 447.198C25.3807 348.836 33.2429 278.19 62.4023 235.26C83.6837 203.929 143.863 261.129 213.958 171.267C284.054 81.4044 301.257 41.5908 404.301 41.5908C507.345 41.5908 725.554 35.3269 588.824 447.455L38.8157 447.198Z" fill="white"/>
</mask>
<g mask="url(#mask0_103_807)">
<path d="M38.8157 447.198C25.3807 348.836 33.2429 278.19 62.4023 235.26C83.6837 203.929 143.863 261.129 213.958 171.267C284.054 81.4044 301.257 41.5908 404.301 41.5908C507.345 41.5908 725.554 35.3269 588.824 447.455L38.8157 447.198Z" fill="#F3FAFF"/>
<path opacity="0.610654" fill-rule="evenodd" clip-rule="evenodd" d="M74.655 487.482C181.236 461.414 265.664 383.12 327.94 252.601C390.217 122.082 419.902 32.5533 416.996 -15.9857C441.721 -123.993 519.345 -98.8327 649.869 59.4952C780.392 217.823 776.45 368.306 638.043 510.943L74.655 487.482Z" fill="#E6F3FB"/>
</g>
<mask id="mask1_103_807" style="mask-type:alpha" maskUnits="userSpaceOnUse" x="582" y="415" width="15" height="34">
<path d="M596.212 415.553H582.619L586.966 446.816C587.136 448.038 588.181 448.947 589.415 448.947C590.65 448.947 591.695 448.038 591.865 446.816L596.212 415.553Z" fill="white"/>
</mask>
<g mask="url(#mask1_103_807)">
<path d="M596.212 415.553H582.619L586.966 446.816C587.136 448.038 588.181 448.947 589.415 448.947C590.65 448.947 591.695 448.038 591.865 446.816L596.212 415.553Z" fill="#91ADC8"/>
<path fill-rule="evenodd" clip-rule="evenodd" d="M598.871 415.553L577.33 435.071L585.374 402.339L598.871 415.553Z" fill="#8098AF"/>
</g>
<mask id="mask2_103_807" style="mask-type:alpha" maskUnits="userSpaceOnUse" x="414" y="415" width="15" height="34">
<path d="M428.368 415.553H414.775L419.123 446.816C419.292 448.038 420.338 448.947 421.572 448.947C422.806 448.947 423.851 448.038 424.021 446.816L428.368 415.553Z" fill="white"/>
</mask>
<g mask="url(#mask2_103_807)">
<path d="M428.368 415.553H414.775L419.123 446.816C419.292 448.038 420.338 448.947 421.572 448.947C422.806 448.947 423.851 448.038 424.021 446.816L428.368 415.553Z" fill="#91ADC8"/>
<path fill-rule="evenodd" clip-rule="evenodd" d="M431.027 415.553L409.487 435.071L417.53 402.339L431.027 415.553Z" fill="#8098AF"/>
</g>
<mask id="mask3_103_807" style="mask-type:alpha" maskUnits="userSpaceOnUse" x="405" y="348" width="201" height="71">
<path d="M605.077 348.204H405.319L410.047 418.507H600.349L605.077 348.204Z" fill="white"/>
</mask>
<g mask="url(#mask3_103_807)">
<path d="M605.077 348.204H405.319L410.047 418.507H600.349L605.077 348.204Z" fill="#D0E6F6"/>
<path opacity="0.366978" fill-rule="evenodd" clip-rule="evenodd" d="M609.805 349.386H405.319V367.109H609.805V349.386Z" fill="#91ADC8"/>
<path d="M541.545 379.811H566.957C568.263 379.811 569.321 380.869 569.321 382.174V384.537C569.321 385.842 568.263 386.9 566.957 386.9H541.545C540.239 386.9 539.181 385.842 539.181 384.537V382.174C539.181 380.869 540.239 379.811 541.545 379.811Z" stroke="#607385" stroke-width="0.65"/>
<path d="M440.484 379.811H465.897C467.202 379.811 468.261 380.869 468.261 382.174V384.537C468.261 385.842 467.202 386.9 465.897 386.9H440.484C439.178 386.9 438.12 385.842 438.12 384.537V382.174C438.12 380.869 439.178 379.811 440.484 379.811Z" stroke="#607385" stroke-width="0.65"/>
<path d="M504.903 344.069V423.078" stroke="#607385" stroke-width="0.65"/>
</g>
<path fill-rule="evenodd" clip-rule="evenodd" d="M603.895 341.115H407.092C404.481 341.115 402.364 343.231 402.364 345.841V349.977C402.364 352.587 404.481 354.703 407.092 354.703H603.895C606.506 354.703 608.623 352.587 608.623 349.977V345.841C608.623 343.231 606.506 341.115 603.895 341.115Z" fill="#A1BEDB"/>
<path d="M492.213 295.034L491.602 319.182" stroke="#8098AF" stroke-width="4.2588" stroke-linecap="round"/>
<mask id="mask4_103_807" style="mask-type:alpha" maskUnits="userSpaceOnUse" x="478" y="317" width="28" height="24">
<path d="M499.983 340.999C503.246 338.335 505.075 335.235 505.472 331.699C505.834 328.471 505.318 324.36 503.923 319.366C503.683 318.506 502.899 317.911 502.005 317.911H481.598C480.704 317.911 479.92 318.506 479.679 319.366C478.285 324.36 477.769 328.471 478.131 331.699C478.527 335.235 480.357 338.335 483.62 340.999H499.983Z" fill="white"/>
</mask>
<g mask="url(#mask4_103_807)">
<path d="M499.983 340.999C503.246 338.335 505.075 335.235 505.472 331.699C505.834 328.471 505.318 324.36 503.923 319.366C503.683 318.506 502.899 317.911 502.005 317.911H481.598C480.704 317.911 479.92 318.506 479.679 319.366C478.285 324.36 477.769 328.471 478.131 331.699C478.527 335.235 480.357 338.335 483.62 340.999H499.983Z" fill="#B8D0E4"/>
<path d="M510.242 327.557H466.271" stroke="black" stroke-width="0.702"/>
<path d="M510.242 330.734H466.271" stroke="black" stroke-width="0.702"/>
<path d="M510.242 333.912H466.271" stroke="black" stroke-width="0.702"/>
</g>
<path d="M499.63 297.364C499.882 304.595 497.301 308.378 491.888 308.714L491.779 314.098C486.564 314.088 483.956 311.43 483.956 306.124" stroke="#8098AF" stroke-width="4.2588" stroke-linecap="round"/>
<path d="M594.439 306.259H598.576C599.555 306.259 600.349 307.053 600.349 308.032V339.343C600.349 340.322 599.555 341.115 598.576 341.115H594.439C593.46 341.115 592.666 340.322 592.666 339.343V308.032C592.666 307.053 593.46 306.259 594.439 306.259Z" fill="#8098AF"/>
<path d="M586.756 307.441H590.893C591.872 307.441 592.666 308.234 592.666 309.213V339.343C592.666 340.322 591.872 341.115 590.893 341.115H586.756C585.777 341.115 584.983 340.322 584.983 339.343V309.213C584.983 308.234 585.777 307.441 586.756 307.441Z" fill="#8098AF"/>
<path d="M579.073 309.213H583.21C584.189 309.213 584.983 310.007 584.983 310.985V339.343C584.983 340.322 584.189 341.115 583.21 341.115H579.073C578.094 341.115 577.3 340.322 577.3 339.343V310.985C577.3 310.007 578.094 309.213 579.073 309.213Z" fill="#8098AF"/>
<path d="M571.39 311.576H575.527C576.506 311.576 577.3 312.37 577.3 313.349V339.343C577.3 340.322 576.506 341.115 575.527 341.115H571.39C570.411 341.115 569.617 340.322 569.617 339.343V313.349C569.617 312.37 570.411 311.576 571.39 311.576Z" fill="#879FB7"/>
<path d="M563.707 306.259H567.844C568.823 306.259 569.617 307.053 569.617 308.032V339.343C569.617 340.322 568.823 341.115 567.844 341.115H563.707C562.728 341.115 561.934 340.322 561.934 339.343V308.032C561.934 307.053 562.728 306.259 563.707 306.259Z" fill="#879FB7"/>
<mask id="mask5_103_807" style="mask-type:alpha" maskUnits="userSpaceOnUse" x="532" y="319" width="9" height="36">
<path d="M534.748 319.847H538.885C539.864 319.847 540.658 320.641 540.658 321.619V352.931C540.658 353.909 539.864 354.703 538.885 354.703H534.748C533.769 354.703 532.975 353.909 532.975 352.931V321.619C532.975 320.641 533.769 319.847 534.748 319.847Z" fill="white"/>
</mask>
<g mask="url(#mask5_103_807)">
<path d="M519.382 339.343V335.207C519.382 334.229 520.176 333.435 521.155 333.435H552.478C553.457 333.435 554.251 334.229 554.251 335.207V339.343C554.251 340.322 553.457 341.115 552.478 341.115H521.155C520.176 341.115 519.382 340.322 519.382 339.343Z" fill="#8098AF"/>
<path fill-rule="evenodd" clip-rule="evenodd" d="M518.2 336.389V338.161C518.2 339.14 518.994 339.934 519.973 339.934H551.296C552.275 339.934 553.069 339.14 553.069 338.161V336.389C553.069 335.41 552.275 334.617 551.296 334.617H519.973C518.994 334.617 518.2 335.41 518.2 336.389Z" fill="#91ADC8"/>
<path d="M518.2 335.642H553.069" stroke="#8098AF" stroke-width="0.65"/>
<path d="M518.2 336.823H553.069" stroke="#8098AF" stroke-width="0.65"/>
<path d="M518.2 338.005H553.069" stroke="#8098AF" stroke-width="0.65"/>
<path d="M518.2 339.186H553.069" stroke="#8098AF" stroke-width="0.65"/>
</g>
<mask id="mask6_103_807" style="mask-type:alpha" maskUnits="userSpaceOnUse" x="537" y="316" width="7" height="29">
<path d="M541.899 316.598H538.826C538.043 316.598 537.408 317.233 537.408 318.016V342.947C537.408 343.73 538.043 344.364 538.826 344.364H541.899C542.683 344.364 543.318 343.73 543.318 342.947V318.016C543.318 317.233 542.683 316.598 541.899 316.598Z" fill="white"/>
</mask>
<g mask="url(#mask6_103_807)">
<path d="M526.474 328.945V332.017C526.474 332.8 527.109 333.435 527.893 333.435H552.833C553.616 333.435 554.251 332.8 554.251 332.017V328.945C554.251 328.162 553.616 327.527 552.833 327.527H527.893C527.109 327.527 526.474 328.162 526.474 328.945Z" fill="#8098AF"/>
<path fill-rule="evenodd" clip-rule="evenodd" d="M525.533 329.854V331.108C525.533 331.891 526.168 332.526 526.951 332.526H551.891C552.674 332.526 553.309 331.891 553.309 331.108V329.854C553.309 329.071 552.674 328.436 551.891 328.436H526.951C526.168 328.436 525.533 329.071 525.533 329.854Z" fill="#91ADC8"/>
<path d="M525.533 329.225H553.309" stroke="#8098AF" stroke-width="0.65"/>
<path d="M525.533 330.134H553.309" stroke="#8098AF" stroke-width="0.65"/>
<path d="M525.533 331.042H553.309" stroke="#8098AF" stroke-width="0.65"/>
<path d="M525.533 331.951H553.309" stroke="#8098AF" stroke-width="0.65"/>
</g>
<mask id="mask7_103_807" style="mask-type:alpha" maskUnits="userSpaceOnUse" x="532" y="310" width="7" height="29">
<path d="M537.171 310.69H534.098C533.315 310.69 532.68 311.325 532.68 312.108V337.039C532.68 337.822 533.315 338.457 534.098 338.457H537.171C537.955 338.457 538.59 337.822 538.59 337.039V312.108C538.59 311.325 537.955 310.69 537.171 310.69Z" fill="white"/>
</mask>
<g mask="url(#mask7_103_807)">
<path d="M521.746 323.037V326.109C521.746 326.892 522.381 327.527 523.164 327.527H548.105C548.888 327.527 549.523 326.892 549.523 326.109V323.037C549.523 322.254 548.888 321.619 548.105 321.619H523.164C522.381 321.619 521.746 322.254 521.746 323.037Z" fill="#8098AF"/>
<path fill-rule="evenodd" clip-rule="evenodd" d="M520.805 323.946V325.2C520.805 325.984 521.44 326.618 522.223 326.618H547.163C547.946 326.618 548.581 325.984 548.581 325.2V323.946C548.581 323.163 547.946 322.528 547.163 322.528H522.223C521.44 322.528 520.805 323.163 520.805 323.946Z" fill="#91ADC8"/>
<path d="M520.804 323.317H548.581" stroke="#8098AF" stroke-width="0.65"/>
<path d="M520.804 324.226H548.581" stroke="#8098AF" stroke-width="0.65"/>
<path d="M520.804 325.135H548.581" stroke="#8098AF" stroke-width="0.65"/>
<path d="M520.804 326.044H548.581" stroke="#8098AF" stroke-width="0.65"/>
</g>
<path fill-rule="evenodd" clip-rule="evenodd" d="M531.202 180.424H534.748L533.597 202.283C533.58 202.614 533.306 202.873 532.975 202.873C532.644 202.873 532.37 202.614 532.353 202.283L531.202 180.424Z" fill="#8098AF"/>
<path fill-rule="evenodd" clip-rule="evenodd" d="M595.621 180.424H599.167L598.016 202.283C597.999 202.614 597.725 202.873 597.394 202.873C597.063 202.873 596.789 202.614 596.772 202.283L595.621 180.424Z" fill="#8098AF"/>
<path d="M620.443 178.06H509.926C508.621 178.06 507.562 179.118 507.562 180.424V183.377C507.562 184.683 508.621 185.741 509.926 185.741H620.443C621.748 185.741 622.807 184.683 622.807 183.377V180.424C622.807 179.118 621.748 178.06 620.443 178.06Z" fill="#A1BEDB"/>
<path d="M518.2 142.614H514.063C513.084 142.614 512.29 143.407 512.29 144.386V175.697C512.29 176.676 513.084 177.47 514.063 177.47H518.2C519.179 177.47 519.973 176.676 519.973 175.697V144.386C519.973 143.407 519.179 142.614 518.2 142.614Z" fill="#8098AF"/>
<path d="M609.805 102.441H558.388V175.107H609.805V102.441Z" fill="white" stroke="#879FB7" stroke-width="5.2"/>
<path d="M525.883 143.795H521.746C520.767 143.795 519.973 144.589 519.973 145.568V175.697C519.973 176.676 520.767 177.47 521.746 177.47H525.883C526.862 177.47 527.656 176.676 527.656 175.697V145.568C527.656 144.589 526.862 143.795 525.883 143.795Z" fill="#8098AF"/>
<path d="M533.566 145.568H529.429C528.45 145.568 527.656 146.361 527.656 147.34V175.697C527.656 176.676 528.45 177.47 529.429 177.47H533.566C534.545 177.47 535.339 176.676 535.339 175.697V147.34C535.339 146.361 534.545 145.568 533.566 145.568Z" fill="#8098AF"/>
<path d="M541.249 147.931H537.112C536.133 147.931 535.339 148.724 535.339 149.703V175.697C535.339 176.676 536.133 177.47 537.112 177.47H541.249C542.228 177.47 543.022 176.676 543.022 175.697V149.703C543.022 148.724 542.228 147.931 541.249 147.931Z" fill="#879FB7"/>
<path d="M548.932 142.614H544.795C543.816 142.614 543.022 143.407 543.022 144.386V175.697C543.022 176.676 543.816 177.47 544.795 177.47H548.932C549.911 177.47 550.705 176.676 550.705 175.697V144.386C550.705 143.407 549.911 142.614 548.932 142.614Z" fill="#879FB7"/>
<path fill-rule="evenodd" clip-rule="evenodd" d="M445.041 84.5286L459.55 65.8738L474.214 84.5286H445.041Z" stroke="#A1BEDB" stroke-width="0.65"/>
<path d="M459.408 119.833C471.001 119.833 480.4 110.438 480.4 98.849C480.4 87.2596 471.001 77.8645 459.408 77.8645C447.814 77.8645 438.415 87.2596 438.415 98.849C438.415 110.438 447.814 119.833 459.408 119.833Z" fill="white" stroke="#91ADC8" stroke-width="2.496"/>
<path d="M457.168 83.5817V83.1612C457.564 83.1226 457.84 83.0586 457.997 82.9692C458.153 82.8778 458.27 82.6635 458.347 82.3263H458.78V86.6712H458.195V83.5817H457.168ZM456.766 93.6712C456.786 93.2954 456.863 92.9684 456.997 92.6901C457.133 92.4118 457.397 92.1589 457.789 91.9314L458.374 91.5932C458.637 91.4409 458.82 91.3109 458.926 91.2032C459.093 91.0346 459.176 90.8417 459.176 90.6243C459.176 90.3704 459.1 90.1693 458.947 90.021C458.795 89.8707 458.592 89.7956 458.338 89.7956C457.962 89.7956 457.702 89.9378 457.558 90.2221C457.481 90.3745 457.438 90.5857 457.43 90.8559H456.872C456.878 90.476 456.949 90.1663 457.083 89.9266C457.32 89.5041 457.74 89.2928 458.341 89.2928C458.841 89.2928 459.205 89.4279 459.435 89.6981C459.666 89.9682 459.782 90.2688 459.782 90.5999C459.782 90.9493 459.659 91.2479 459.413 91.4957C459.271 91.6399 459.016 91.8146 458.649 92.0198L458.231 92.2513C458.032 92.361 457.876 92.4656 457.762 92.5652C457.559 92.7419 457.431 92.9379 457.378 93.1532H459.761V93.6712H456.766Z" fill="black"/>
<path d="M459.909 112.538C460.396 112.538 460.735 112.665 460.926 112.918C461.119 113.17 461.216 113.43 461.216 113.698H460.674C460.641 113.526 460.589 113.391 460.518 113.293C460.386 113.11 460.186 113.019 459.918 113.019C459.611 113.019 459.367 113.161 459.187 113.446C459.006 113.728 458.905 114.133 458.885 114.661C459.011 114.476 459.169 114.338 459.36 114.247C459.535 114.166 459.73 114.125 459.945 114.125C460.311 114.125 460.63 114.242 460.902 114.475C461.174 114.709 461.31 115.057 461.31 115.52C461.31 115.917 461.181 116.268 460.923 116.575C460.665 116.879 460.298 117.032 459.82 117.032C459.412 117.032 459.06 116.877 458.763 116.569C458.467 116.258 458.318 115.736 458.318 115.003C458.318 114.46 458.384 114 458.516 113.622C458.77 112.899 459.234 112.538 459.909 112.538ZM459.869 116.544C460.158 116.544 460.373 116.448 460.515 116.255C460.659 116.06 460.731 115.83 460.731 115.566C460.731 115.343 460.667 115.13 460.539 114.929C460.411 114.726 460.179 114.625 459.842 114.625C459.606 114.625 459.399 114.703 459.22 114.859C459.043 115.016 458.955 115.251 458.955 115.566C458.955 115.842 459.035 116.075 459.196 116.264C459.358 116.451 459.583 116.544 459.869 116.544Z" fill="black"/>
<path d="M442.27 100.741C442.286 101.044 442.403 101.253 442.62 101.369C442.732 101.429 442.858 101.46 442.998 101.46C443.26 101.46 443.484 101.351 443.668 101.134C443.853 100.915 443.984 100.471 444.061 99.8024C443.94 99.9954 443.788 100.132 443.607 100.211C443.429 100.288 443.236 100.327 443.029 100.327C442.608 100.327 442.275 100.195 442.029 99.9335C441.785 99.6714 441.664 99.3342 441.664 98.9219C441.664 98.5258 441.784 98.1774 442.026 97.8768C442.268 97.5762 442.624 97.4259 443.096 97.4259C443.731 97.4259 444.17 97.7123 444.412 98.2851C444.546 98.5999 444.613 98.994 444.613 99.4673C444.613 100.002 444.533 100.475 444.372 100.887C444.106 101.574 443.655 101.917 443.019 101.917C442.593 101.917 442.269 101.805 442.047 101.582C441.826 101.358 441.715 101.078 441.715 100.741H442.27ZM443.102 99.8451C443.319 99.8451 443.517 99.774 443.696 99.6318C443.877 99.4876 443.967 99.2367 443.967 98.8792C443.967 98.5583 443.886 98.3196 443.723 98.1632C443.563 98.0048 443.358 97.9256 443.108 97.9256C442.84 97.9256 442.626 98.016 442.468 98.1967C442.312 98.3755 442.233 98.6152 442.233 98.9158C442.233 99.2002 442.302 99.4267 442.441 99.5953C442.579 99.7618 442.799 99.8451 443.102 99.8451Z" fill="black"/>
<path d="M475.591 101.914C475.075 101.914 474.7 101.773 474.466 101.49C474.235 101.206 474.119 100.861 474.119 100.454H474.692C474.716 100.737 474.769 100.942 474.85 101.07C474.992 101.299 475.249 101.414 475.621 101.414C475.91 101.414 476.141 101.337 476.316 101.183C476.491 101.028 476.578 100.829 476.578 100.585C476.578 100.285 476.485 100.075 476.301 99.9548C476.118 99.8349 475.863 99.775 475.536 99.775C475.499 99.775 475.462 99.776 475.423 99.7781C475.387 99.7781 475.349 99.7791 475.31 99.7811V99.2967C475.367 99.3028 475.415 99.3068 475.454 99.3088C475.492 99.3109 475.534 99.3119 475.578 99.3119C475.784 99.3119 475.952 99.2794 476.084 99.2144C476.316 99.1006 476.432 98.8975 476.432 98.605C476.432 98.3877 476.354 98.2201 476.2 98.1023C476.046 97.9845 475.866 97.9256 475.661 97.9256C475.295 97.9256 475.042 98.0474 474.902 98.2912C474.825 98.4253 474.781 98.6162 474.771 98.864H474.229C474.229 98.539 474.294 98.2628 474.424 98.0353C474.647 97.629 475.04 97.4259 475.603 97.4259C476.048 97.4259 476.392 97.5254 476.636 97.7245C476.879 97.9215 477.001 98.2079 477.001 98.5837C477.001 98.8518 476.929 99.0692 476.785 99.2357C476.696 99.3393 476.58 99.4206 476.438 99.4795C476.667 99.5424 476.846 99.6643 476.974 99.8451C477.104 100.024 477.169 100.243 477.169 100.503C477.169 100.92 477.032 101.259 476.758 101.521C476.483 101.783 476.094 101.914 475.591 101.914Z" fill="black"/>
<path d="M448.683 88.0458L459.343 99.0981V108.766" stroke="black" stroke-width="0.832" stroke-linecap="round"/>
<path d="M459.343 99.0981L467.743 90.3418" stroke="#FF6771" stroke-width="0.65"/>
<path d="M459.408 100.55C460.348 100.55 461.11 99.7886 461.11 98.849C461.11 97.9093 460.348 97.1475 459.408 97.1475C458.467 97.1475 457.705 97.9093 457.705 98.849C457.705 99.7886 458.467 100.55 459.408 100.55Z" fill="#91ADC8"/>
<path d="M459.597 66.8997C460.223 66.8997 460.731 66.3919 460.731 65.7654C460.731 65.139 460.223 64.6311 459.597 64.6311C458.97 64.6311 458.462 65.139 458.462 65.7654C458.462 66.3919 458.97 66.8997 459.597 66.8997Z" fill="#91ADC8"/>
<path d="M589.711 448.932H564.889H475.057H77.3152H38.7946" stroke="#607385" stroke-width="0.65"/>
<path d="M168.569 329.772V446.766" stroke="#607385" stroke-width="2.6" stroke-linecap="round"/>
<path d="M210.206 329.772V446.766" stroke="#607385" stroke-width="2.6" stroke-linecap="round"/>
<path d="M211.389 298.579H163.601V306.614H211.389V298.579Z" fill="#A1BEDB"/>
<path d="M281.888 306.141H210.916V334.026H281.888V306.141Z" fill="#D0E6F6"/>
<path d="M211.389 306.141H166.913V334.026H211.389V306.141Z" fill="#A1BEDB"/>
<path d="M211.389 306.614H166.913V312.758H211.389V306.614Z" fill="#91ADC8"/>
<path d="M281.888 306.614H210.916V312.758H281.888V306.614Z" fill="#A1BEDB"/>
<path d="M276.861 304.073H215.943V329.477H276.861V304.073Z" stroke="#7C95AC" stroke-width="0.65"/>
<path d="M255.097 317.779H239.599C239.077 317.779 238.654 318.203 238.654 318.725V320.97C238.654 321.492 239.077 321.915 239.599 321.915H255.097C255.619 321.915 256.042 321.492 256.042 320.97V318.725C256.042 318.203 255.619 317.779 255.097 317.779Z" stroke="#7C95AC" stroke-width="0.65"/>
<path d="M238.358 317.484H259.52" stroke="#7C95AC" stroke-width="0.65"/>
<path d="M415.401 298.579H210.916V306.614H415.401V298.579Z" fill="#D0E6F6"/>
<path fill-rule="evenodd" clip-rule="evenodd" d="M207.83 264.374C206.854 260.93 205.7 259.345 204.369 259.618C203.038 259.891 201.86 262.975 200.834 268.869L207.83 264.374Z" fill="#FFBB00"/>
<path opacity="0.22447" fill-rule="evenodd" clip-rule="evenodd" d="M206.744 264.711C206.084 262.3 205.305 261.19 204.405 261.381C203.506 261.573 202.709 263.732 202.016 267.859L206.744 264.711Z" fill="#594100"/>
<path fill-rule="evenodd" clip-rule="evenodd" d="M209.809 264.889C210.914 261.619 211.978 260.105 213.001 260.348C214.535 260.713 216.018 265.825 214.731 270.298C213.872 273.279 212.232 271.477 209.809 264.889Z" fill="#FFBB00"/>
<path opacity="0.22447" fill-rule="evenodd" clip-rule="evenodd" d="M210.881 265.036C211.605 262.826 212.302 261.804 212.972 261.968C213.977 262.214 214.949 265.668 214.105 268.69C213.543 270.704 212.468 269.486 210.881 265.036Z" fill="#594100"/>
<mask id="mask8_103_807" style="mask-type:alpha" maskUnits="userSpaceOnUse" x="171" y="273" width="51" height="53">
<path d="M212.895 279.269C213.809 281.027 214.337 282.925 214.479 284.962C214.621 286.999 214.092 289.119 212.895 291.321C219.55 291.305 222.519 293.799 221.803 298.804H179.139C177.77 308.756 182.225 315.9 192.505 320.234C195.66 321.312 197.171 322.349 197.038 323.344C196.956 325.422 194.963 326.06 191.059 325.257C185.204 324.052 169.486 318.249 172.224 296.026C174.963 273.803 186.009 273.037 188.284 273.037C190.559 273.037 195.166 273.124 200.75 278.603L212.895 279.269Z" fill="white"/>
</mask>
<g mask="url(#mask8_103_807)">
<path d="M212.895 279.269C213.809 281.027 214.337 282.925 214.479 284.962C214.621 286.999 214.092 289.119 212.895 291.321C219.55 291.305 222.519 293.799 221.803 298.804H179.139C177.77 308.756 182.225 315.9 192.505 320.234C195.66 321.312 197.171 322.349 197.038 323.344C196.956 325.422 194.963 326.06 191.059 325.257C185.204 324.052 169.486 318.249 172.224 296.026C174.963 273.803 186.009 273.037 188.284 273.037C190.559 273.037 195.166 273.124 200.75 278.603L212.895 279.269Z" fill="#FFCE00"/>
<path d="M179.853 284.853C185.892 284.853 190.787 279.96 190.787 273.924C190.787 267.887 185.892 262.994 179.853 262.994C173.815 262.994 168.92 267.887 168.92 273.924C168.92 279.96 173.815 284.853 179.853 284.853Z" fill="#E9AC03"/>
<path d="M179.853 322.596C187.013 317.349 189.606 310.474 187.634 301.974" stroke="#FFBB00" stroke-width="5.2"/>
<path d="M166.424 315.364C175.3 315.17 181.369 311.026 184.631 302.932" stroke="#FFBB00" stroke-width="5.2"/>
<path d="M164.145 298.482C171.069 304.037 178.382 304.762 186.086 300.658" stroke="#FFBB00" stroke-width="5.2"/>
<path d="M188.718 329.685C195.878 324.438 198.471 317.564 196.499 309.063" stroke="#FFBB00" stroke-width="5.2"/>
<path fill-rule="evenodd" clip-rule="evenodd" d="M197.7 323.672C190.397 322.221 184.907 319.079 181.231 314.245C177.554 309.412 176.229 304.264 177.253 298.804H181.231C188.247 308.585 193.367 315.909 196.59 320.775C199.812 325.641 200.183 326.606 197.7 323.672Z" fill="#594100"/>
<path opacity="0.495257" fill-rule="evenodd" clip-rule="evenodd" d="M213.238 279.083C209.75 281.067 206.727 281.419 204.168 280.141C206.077 282.098 207.324 284.058 207.911 286.022C208.498 287.986 209.075 290.38 209.644 293.203C212.974 292.061 214.833 290.227 215.221 287.7C215.609 285.173 214.948 282.301 213.238 279.083Z" fill="#FFFFED"/>
<path opacity="0.22168" fill-rule="evenodd" clip-rule="evenodd" d="M193.257 281.249C197.52 282.474 199.334 285.072 198.699 289.041C203.688 288.747 206.183 292.001 206.183 298.804H203.805C203.529 295.181 201.679 293.533 198.255 293.86L193.58 294.752L191.396 295.437C194.546 292.329 196.025 289.544 195.833 287.082C195.64 284.621 194.782 282.676 193.257 281.249Z" fill="#FFFFED"/>
</g>
<mask id="mask9_103_807" style="mask-type:alpha" maskUnits="userSpaceOnUse" x="199" y="264" width="18" height="17">
<path d="M207.926 280.856C212.495 280.856 216.2 277.153 216.2 272.585C216.2 268.017 212.495 264.314 207.926 264.314C203.356 264.314 199.652 268.017 199.652 272.585C199.652 277.153 203.356 280.856 207.926 280.856Z" fill="white"/>
</mask>
<g mask="url(#mask9_103_807)">
<path d="M207.926 280.856C212.495 280.856 216.2 277.153 216.2 272.585C216.2 268.017 212.495 264.314 207.926 264.314C203.356 264.314 199.652 268.017 199.652 272.585C199.652 277.153 203.356 280.856 207.926 280.856Z" fill="#FFCE00"/>
<path d="M201.129 278.493C203.577 278.493 205.562 276.509 205.562 274.062C205.562 271.615 203.577 269.631 201.129 269.631C198.681 269.631 196.697 271.615 196.697 274.062C196.697 276.509 198.681 278.493 201.129 278.493Z" fill="#FFBB00"/>
<path d="M218.859 278.493C221.307 278.493 223.292 276.509 223.292 274.062C223.292 271.615 221.307 269.631 218.859 269.631C216.411 269.631 214.427 271.615 214.427 274.062C214.427 276.509 216.411 278.493 218.859 278.493Z" fill="#FFBB00"/>
<path opacity="0.5" d="M209.403 284.4C213.157 284.4 216.2 281.359 216.2 277.607C216.2 273.854 213.157 270.813 209.403 270.813C205.65 270.813 202.607 273.854 202.607 277.607C202.607 281.359 205.65 284.4 209.403 284.4Z" fill="#FFFFED"/>
</g>
<path d="M219.1 298.804C218.945 295.685 217.844 293.889 215.797 293.417C213.75 292.945 211.699 292.874 209.644 293.203C209.05 289.703 208.477 287.354 207.926 286.155C207.374 284.957 206.442 284.035 205.129 283.39" stroke="#594100" stroke-width="0.65"/>
<path d="M185.161 279.524C190.35 278.648 193.708 280.107 195.235 283.902C196.762 287.697 195.514 291.503 191.491 295.319C199.926 292.582 204 293.743 203.713 298.804" stroke="#594100" stroke-width="0.65"/>
<path d="M206.183 272.246C202.516 271.359 199.32 271.623 196.593 273.037" stroke="#594100" stroke-width="0.65"/>
<path d="M206.183 274.331C203.765 273.959 201.271 274.769 198.699 276.759" stroke="#594100" stroke-width="0.65"/>
<path d="M213.238 271.691C214.883 270.794 217.324 270.794 220.562 271.691" stroke="#594100" stroke-width="0.65"/>
<path d="M213.238 273.896C216.108 273.207 218.55 273.743 220.562 275.501" stroke="#594100" stroke-width="0.65"/>
<path d="M208.354 272.835C209.169 273.447 209.888 273.297 210.511 272.386C211.319 273.203 212.01 273.42 212.583 273.037" stroke="#594100" stroke-width="0.65"/>
<path d="M210.29 272.017C210.943 272.017 211.472 271.61 211.472 271.108C211.472 270.606 210.943 270.199 210.29 270.199C209.637 270.199 209.108 270.606 209.108 271.108C209.108 271.61 209.637 272.017 210.29 272.017Z" fill="#D8D8D8" stroke="black" stroke-width="0.65"/>
<path d="M205.9 270.083C206.629 269.325 207.447 269.257 208.354 269.88" stroke="#594100" stroke-width="0.65"/>
<path d="M212.179 269.22C212.627 268.645 213.22 268.645 213.958 269.22" stroke="#594100" stroke-width="0.65"/>
<path fill-rule="evenodd" clip-rule="evenodd" d="M301.534 279.682L294.503 295.633H267.847L275.238 279.682H301.534ZM284.986 282.636C283.354 282.636 282.031 283.958 282.031 285.59C282.031 287.221 283.354 288.544 284.986 288.544C286.618 288.544 287.941 287.221 287.941 285.59C287.941 283.958 286.618 282.636 284.986 282.636Z" fill="#7FC1FF"/>
<path fill-rule="evenodd" clip-rule="evenodd" d="M271.197 279.682L266.145 289.671C264.614 292.699 265.828 296.395 268.858 297.926C269.718 298.36 270.667 298.587 271.631 298.587H276.712V295.387L271.828 295.325C270.522 295.308 269.477 294.237 269.494 292.932C269.498 292.604 269.571 292.281 269.706 291.983L275.307 279.682H271.197Z" fill="#3E6C98"/>
<path fill-rule="evenodd" clip-rule="evenodd" d="M276.712 295.387L305.08 295.633V298.587H276.712V295.387Z" fill="#5185B7"/>
<path fill-rule="evenodd" clip-rule="evenodd" d="M230.975 204.062H335.864C337.372 204.062 338.638 205.197 338.802 206.695L346.683 278.77C346.86 280.392 345.689 281.85 344.067 282.028C343.96 282.039 343.853 282.045 343.746 282.045H239.294C237.793 282.045 236.531 280.92 236.359 279.43L228.04 207.355C227.852 205.734 229.015 204.269 230.636 204.082C230.749 204.069 230.862 204.062 230.975 204.062Z" fill="#3E6C98"/>
<path fill-rule="evenodd" clip-rule="evenodd" d="M349.636 276.443C349.364 279.958 347.354 281.826 343.605 282.045C339.856 282.265 341.867 280.397 349.636 276.443Z" fill="#3E6C98"/>
<path fill-rule="evenodd" clip-rule="evenodd" d="M236.05 203.472C230.697 203.359 228.02 204.485 228.02 206.85C228.02 209.214 230.697 208.088 236.05 203.472Z" fill="#0076C2"/>
<path fill-rule="evenodd" clip-rule="evenodd" d="M233.939 203.472H338.826C340.331 203.472 341.595 204.602 341.763 206.097L349.629 276.4C349.81 278.021 348.643 279.482 347.021 279.664C346.912 279.676 346.802 279.682 346.692 279.682H242.242C240.744 279.682 239.483 278.561 239.308 277.074L231.004 206.772C230.813 205.152 231.972 203.683 233.592 203.492C233.707 203.478 233.823 203.472 233.939 203.472Z" fill="#7FC1FF"/>
<path opacity="0.772345" fill-rule="evenodd" clip-rule="evenodd" d="M236.89 206.721C236.806 206.721 236.722 206.726 236.639 206.736C235.505 206.875 234.698 207.907 234.837 209.04L241.718 265.164C241.845 266.201 242.726 266.98 243.771 266.98H342.643C342.715 266.98 342.787 266.976 342.859 266.969C343.995 266.85 344.82 265.832 344.7 264.697L338.809 208.573C338.699 207.52 337.811 206.721 336.752 206.721H236.89Z" fill="url(#paint0_linear_103_807)" stroke="#040404" stroke-opacity="0.620821" stroke-width="0.65"/>
<mask id="mask10_103_807" style="mask-type:alpha" maskUnits="userSpaceOnUse" x="342" y="427" width="19" height="18">
<path d="M343.102 428.916L342.694 437.514L350.842 443.096C354.042 444.538 356.465 444.469 358.112 442.888C359.758 441.308 360.406 438.431 360.054 434.256L360.193 427.892L343.102 428.916Z" fill="white"/>
</mask>
<g mask="url(#mask10_103_807)">
<path d="M343.102 428.916L342.694 437.514L350.842 443.096C354.042 444.538 356.465 444.469 358.112 442.888C359.758 441.308 360.406 438.431 360.054 434.256L360.193 427.892L343.102 428.916Z" fill="#FFD3C8"/>
<path fill-rule="evenodd" clip-rule="evenodd" d="M342.082 429.022L362.942 434.256V425.596L342.082 429.022Z" fill="#F1B2A2"/>
</g>
<mask id="mask11_103_807" style="mask-type:alpha" maskUnits="userSpaceOnUse" x="319" y="435" width="42" height="15">
<path d="M360.278 436.821C358.588 437.241 357.074 437.658 355.734 438.073C348.622 440.276 342.729 438.597 342.729 435.186C325.845 438.314 318.341 442.994 320.216 449.228H358.612C359.592 449.228 360.385 448.434 360.385 447.455C360.385 447.449 360.385 447.443 360.385 447.437L360.278 436.821Z" fill="white"/>
</mask>
<g mask="url(#mask11_103_807)">
<path d="M360.278 436.821C358.588 437.241 357.074 437.658 355.734 438.073C348.622 440.276 342.729 438.597 342.729 435.186C325.845 438.314 318.341 442.994 320.216 449.228H358.612C359.592 449.228 360.385 448.434 360.385 447.455C360.385 447.449 360.385 447.443 360.385 447.437L360.278 436.821Z" fill="#2A3756"/>
<path d="M363.949 447.455H317.852V455.726H363.949V447.455Z" fill="#FFF9F9"/>
</g>
<mask id="mask12_103_807" style="mask-type:alpha" maskUnits="userSpaceOnUse" x="290" y="427" width="19" height="17">
<path d="M291.094 430.688L290.686 437.514L298.834 443.096C302.746 443.326 305.323 442.845 306.564 441.654C307.805 440.463 308.299 437.997 308.046 434.256L308.185 427.892L291.094 430.688Z" fill="white"/>
</mask>
<g mask="url(#mask12_103_807)">
<path d="M291.094 430.688L290.686 437.514L298.834 443.096C302.746 443.326 305.323 442.845 306.564 441.654C307.805 440.463 308.299 437.997 308.046 434.256L308.185 427.892L291.094 430.688Z" fill="#FFD3C8"/>
<path fill-rule="evenodd" clip-rule="evenodd" d="M287.711 429.022L308.571 434.256V425.596L287.711 429.022Z" fill="#F1B2A2"/>
</g>
<mask id="mask13_103_807" style="mask-type:alpha" maskUnits="userSpaceOnUse" x="267" y="435" width="42" height="15">
<path d="M308.27 437.412C306.481 437.297 304.878 437.451 303.463 437.874C296.675 439.899 290.721 438.518 290.721 435.186C273.883 438.63 266.379 443.311 268.208 449.228H306.604C307.583 449.228 308.377 448.434 308.377 447.455C308.377 447.449 308.377 447.443 308.376 447.436L308.27 437.412Z" fill="white"/>
</mask>
<g mask="url(#mask13_103_807)">
<path d="M308.27 437.412C306.481 437.297 304.878 437.451 303.463 437.874C296.675 439.899 290.721 438.518 290.721 435.186C273.883 438.63 266.379 443.311 268.208 449.228H306.604C307.583 449.228 308.377 448.434 308.377 447.455C308.377 447.449 308.377 447.443 308.376 447.436L308.27 437.412Z" fill="#2A3756"/>
<path d="M310.76 447.455H264.662V455.726H310.76V447.455Z" fill="#FFF9F9"/>
</g>
<path fill-rule="evenodd" clip-rule="evenodd" d="M396.587 209.672C393.062 204.732 393.27 200.578 397.209 197.211C403.117 192.16 429.143 201.399 427.666 211.063C434.895 215.827 431.278 225.233 416.815 239.282C415.085 239.454 414.022 239.289 413.627 238.787C413.609 238.763 408.599 231.048 398.596 215.64L396.587 209.672Z" fill="#4C2603"/>
<path d="M393.499 221.778C395.458 221.778 397.045 220.191 397.045 218.233C397.045 216.276 395.458 214.689 393.499 214.689C391.541 214.689 389.953 216.276 389.953 218.233C389.953 220.191 391.541 221.778 393.499 221.778Z" stroke="#061537" stroke-width="0.65" stroke-linecap="round"/>
<mask id="mask14_103_807" style="mask-type:alpha" maskUnits="userSpaceOnUse" x="391" y="209" width="26" height="42">
<path d="M416.325 247.664L416.996 239.108C415.411 239.164 414.249 238.301 413.508 236.518C413.007 235.311 412.264 231.953 411.281 226.442C415.357 224.115 413.211 218.51 411.281 218.975C409.35 219.441 409.082 223.639 408.399 223.591C407.943 223.56 407.943 222.021 408.399 218.975C405.784 218.701 404.951 216.865 405.901 213.469C401.492 213.066 398.314 211.898 396.366 209.962C396.366 209.962 395.194 215.529 394.421 220.749C394.15 222.579 391.782 226.151 391.618 226.829C391.509 227.281 392.13 227.766 393.482 228.284C393.261 236.968 396.469 241.311 403.107 241.311L402.399 250.485L416.325 247.664Z" fill="white"/>
</mask>
<g mask="url(#mask14_103_807)">
<path d="M416.325 247.664L416.996 239.108C415.411 239.164 414.249 238.301 413.508 236.518C413.007 235.311 412.264 231.953 411.281 226.442C415.357 224.115 413.211 218.51 411.281 218.975C409.35 219.441 409.082 223.639 408.399 223.591C407.943 223.56 407.943 222.021 408.399 218.975C405.784 218.701 404.951 216.865 405.901 213.469C401.492 213.066 398.314 211.898 396.366 209.962C396.366 209.962 395.194 215.529 394.421 220.749C394.15 222.579 391.782 226.151 391.618 226.829C391.509 227.281 392.13 227.766 393.482 228.284C393.261 236.968 396.469 241.311 403.107 241.311L402.399 250.485L416.325 247.664Z" fill="#FFD3C8"/>
<path fill-rule="evenodd" clip-rule="evenodd" d="M403.107 241.311C405.354 240.648 406.751 239.806 407.299 238.787C406.757 242.536 404.869 244.879 401.636 245.815C398.403 246.752 398.893 245.25 403.107 241.311Z" fill="#F1B2A2"/>
</g>
<path d="M389.953 217.643L410.638 218.233" stroke="#061537" stroke-width="0.65"/>
<mask id="mask15_103_807" style="mask-type:alpha" maskUnits="userSpaceOnUse" x="345" y="281" width="28" height="22">
<path d="M363.469 301.954C362.383 302.398 360.497 301.971 357.811 300.672C353.783 298.724 349.191 299.354 348.877 299.129C348.563 298.905 350.051 294.551 357.511 296.84C354.186 291.322 350.874 287.993 347.576 286.853C342.629 285.144 346.437 284.711 346.437 284.711C346.072 283.9 346.57 283.527 347.932 283.592C349.294 283.657 350.408 283.94 351.274 284.441C350.854 283.39 351.227 282.986 352.394 283.228C353.561 283.471 355.015 284.175 356.756 285.34C354.481 283.551 353.343 282.411 353.343 281.92C353.343 281.182 354.24 281.405 354.684 281.92C355.128 282.435 365.826 288.877 367.2 291.436C368.115 293.142 369.79 294.43 372.223 295.301L363.469 301.954Z" fill="white"/>
</mask>
<g mask="url(#mask15_103_807)">
<path d="M363.469 301.954C362.383 302.398 360.497 301.971 357.811 300.672C353.783 298.724 349.191 299.354 348.877 299.129C348.563 298.905 350.051 294.551 357.511 296.84C354.186 291.322 350.874 287.993 347.576 286.853C342.629 285.144 346.437 284.711 346.437 284.711C346.072 283.9 346.57 283.527 347.932 283.592C349.294 283.657 350.408 283.94 351.274 284.441C350.854 283.39 351.227 282.986 352.394 283.228C353.561 283.471 355.015 284.175 356.756 285.34C354.481 283.551 353.343 282.411 353.343 281.92C353.343 281.182 354.24 281.405 354.684 281.92C355.128 282.435 365.826 288.877 367.2 291.436C368.115 293.142 369.79 294.43 372.223 295.301L363.469 301.954Z" fill="#FFD3C8"/>
<path fill-rule="evenodd" clip-rule="evenodd" d="M367.192 290.33L359.021 303.01L369.295 304.318L367.192 290.33Z" fill="#F1B2A2"/>
</g>
<path d="M346.219 284.991C349.724 285.585 352.482 286.767 354.493 288.536" stroke="#301913" stroke-width="0.65"/>
<path d="M350.947 284.4C353.197 285.155 354.97 286.14 356.266 287.354" stroke="#301913" stroke-width="0.65"/>
<mask id="mask16_103_807" style="mask-type:alpha" maskUnits="userSpaceOnUse" x="337" y="357" width="27" height="73">
<path d="M338.847 358.788C338.109 373.731 337.74 385.242 337.74 393.321C337.74 401.4 338.109 413.518 338.847 429.676H361.721L363.676 358.047L340.022 357.657L338.847 358.788Z" fill="white"/>
</mask>
<g mask="url(#mask16_103_807)">
<path d="M338.847 358.788C338.109 373.731 337.74 385.242 337.74 393.321C337.74 401.4 338.109 413.518 338.847 429.676H361.721L363.676 358.047L340.022 357.657L338.847 358.788Z" fill="#955454"/>
<path fill-rule="evenodd" clip-rule="evenodd" d="M365.207 359.719L337.74 430.588L336.172 357.653L365.207 359.719Z" fill="#834E4E"/>
</g>
<mask id="mask17_103_807" style="mask-type:alpha" maskUnits="userSpaceOnUse" x="281" y="331" width="140" height="100">
<path d="M418.536 335.589C342.988 329.372 300.141 330.538 289.996 339.087C279.85 347.636 279.125 378.176 287.819 430.706H310.525C309.88 386.621 310.783 364.182 313.235 363.389C314.786 362.888 322.273 363.701 335.943 363.833C341.242 363.885 365.859 363.737 409.793 363.389C415.622 362.457 419.148 359.054 420.372 353.182C421.595 347.309 420.983 341.445 418.536 335.589Z" fill="white"/>
</mask>
<g mask="url(#mask17_103_807)">
<path d="M418.536 335.589C342.988 329.372 300.141 330.538 289.996 339.087C279.85 347.636 279.125 378.176 287.819 430.706H310.525C309.88 386.621 310.783 364.182 313.235 363.389C314.786 362.888 322.273 363.701 335.943 363.833C341.242 363.885 365.859 363.737 409.793 363.389C415.622 362.457 419.148 359.054 420.372 353.182C421.595 347.309 420.983 341.445 418.536 335.589Z" fill="#955454"/>
<path fill-rule="evenodd" clip-rule="evenodd" d="M352.975 332.882C351.121 340.27 350.193 345.693 350.193 349.148C350.193 351.773 331.019 346.534 309.06 350.59C304.852 351.367 301.124 353.465 297.875 356.883C297.09 358.408 296.842 365.289 297.129 377.526C297.416 389.762 298.263 408.337 299.667 433.25L320.394 431.853L323.024 367.221L423.771 366.509L432.979 332.882H352.975Z" fill="#834E4E"/>
</g>
<path d="M299.1 424.415C297.811 393.657 297.167 372.373 297.167 360.562C297.167 342.846 345.223 350.107 357.865 350.107C366.293 350.107 369.6 345.09 367.787 335.055C371.678 332.389 377.669 322.791 385.758 306.261C397.893 281.466 406.432 264.598 393.667 256.043" stroke="#301913" stroke-width="0.65"/>
<path d="M306.176 371.836C309.643 371.172 311.368 369.319 311.35 366.275C308.502 366.981 305.744 365.881 303.077 362.974" stroke="#301913" stroke-width="0.65"/>
<path d="M287.12 424.71H310.169" stroke="#301913" stroke-width="0.65"/>
<path d="M338.536 424.71H361.585" stroke="#301913" stroke-width="0.65"/>
<path fill-rule="evenodd" clip-rule="evenodd" d="M417.677 247.212C418.333 244.02 412.959 244.02 401.552 247.212C400.568 248.093 399.943 248.761 399.679 249.215C399.336 249.804 399.049 250.702 398.818 251.908L417.677 247.212Z" fill="white"/>
<mask id="mask18_103_807" style="mask-type:alpha" maskUnits="userSpaceOnUse" x="320" y="246" width="124" height="93">
<path d="M443.517 270.552C442.457 259.937 438.173 253.23 430.664 250.431C419.401 246.231 409.221 244.818 392.323 252.176C375.424 259.534 360.351 311.887 357.536 313.422L328.985 297.594L320.807 308.473C344.851 331.549 360.493 340.515 367.735 335.371L374.864 335.741L419.787 338.161C426.318 336.197 431.183 330.658 434.381 321.545C437.58 312.432 440.625 295.434 443.517 270.552Z" fill="white"/>
</mask>
<g mask="url(#mask18_103_807)">
<path d="M443.517 270.552C442.457 259.937 438.173 253.23 430.664 250.431C419.401 246.231 409.221 244.818 392.323 252.176C375.424 259.534 360.351 311.887 357.536 313.422L328.985 297.594L320.807 308.473C344.851 331.549 360.493 340.515 367.735 335.371L374.864 335.741L419.787 338.161C426.318 336.197 431.183 330.658 434.381 321.545C437.58 312.432 440.625 295.434 443.517 270.552Z" fill="#659CFF"/>
<path fill-rule="evenodd" clip-rule="evenodd" d="M437.506 253.676C439.264 258.17 440.263 261.325 440.502 263.141C440.7 264.648 440.54 268.269 440.126 274.049C439.95 276.506 440.367 291.55 441.378 319.182L447.796 274.322L443.517 257.731L437.506 253.676Z" fill="#4C7FFF"/>
<path fill-rule="evenodd" clip-rule="evenodd" d="M400.946 283.701C396.081 294.336 392.511 301.81 390.237 306.125C387.477 311.361 385.64 315.902 382.632 319.847C375.907 328.669 370.827 333.998 367.392 335.834L377.153 337.81C383.088 338.437 387.449 335.008 390.237 327.524C393.025 320.039 396.594 305.431 400.946 283.701Z" fill="#4C7FFF"/>
<path fill-rule="evenodd" clip-rule="evenodd" d="M332.948 299.433L320.807 315.445L317.799 310.497L331.019 293.191L332.948 299.433Z" fill="white"/>
<path fill-rule="evenodd" clip-rule="evenodd" d="M398.818 264.905C402.545 268.818 403.164 274.827 400.675 282.932C399.889 285.489 377.34 345.527 379.593 346.032C381.133 346.377 427.698 362.029 440.779 350.8C448.752 343.957 440.321 275.88 442.651 275.15C448.638 273.276 414.725 275.271 406.335 268.126C404.82 266.835 402.314 265.761 398.818 264.905Z" fill="#4C7FFF"/>
</g>
<path d="M437.233 255.452C440.693 260.888 441.621 267.19 440.018 274.357" stroke="#301913" stroke-width="0.65"/>
<path d="M373.672 276.514C368.478 287.596 365.161 294.967 363.724 298.628C359.922 308.308 358.202 313.565 357.425 313.342C356.208 312.992 346.72 307.733 328.96 297.564L320.807 308.408" stroke="#301913" stroke-width="0.65"/>
<path d="M357.354 313.349C356.512 315.619 356.741 317.785 358.039 319.847" stroke="#301913" stroke-width="0.65"/>
<path d="M357.448 313.349C354.099 314.407 352.529 316.179 352.739 318.666" stroke="#301913" stroke-width="0.65"/>
<path d="M381.679 321.619C386.572 312.7 389.926 306.436 391.741 302.828C400.342 285.73 406.547 272.382 398.91 264.314" stroke="#301913" stroke-width="0.65"/>
<path fill-rule="evenodd" clip-rule="evenodd" d="M313.715 287.086C313.696 285.749 314.174 285.303 315.151 285.749C316.616 286.418 322.18 289.938 322.564 293.056C322.82 295.135 319.871 293.145 313.715 287.086Z" fill="#F1B2A2"/>
<mask id="mask19_103_807" style="mask-type:alpha" maskUnits="userSpaceOnUse" x="298" y="282" width="30" height="25">
<path d="M327.307 299.748C324.43 294.561 322.063 291.493 320.204 290.544C317.417 289.122 304.288 281.503 303.261 282.77C302.233 284.036 306.133 286.703 310.297 289.035C314.462 291.367 300.998 285.396 299.982 285.741C298.965 286.086 298.263 287.057 299.982 288.297C298.807 289.22 298.817 290.12 300.009 290.999C301.202 291.878 303.317 293.465 306.353 295.759C302.744 294.276 300.785 293.701 300.475 294.032C300.246 294.278 302.389 296.716 310.297 301.264C312.161 302.335 316.03 304.198 321.905 306.85L327.307 299.748Z" fill="white"/>
</mask>
<g mask="url(#mask19_103_807)">
<path d="M327.307 299.748C324.43 294.561 322.063 291.493 320.204 290.544C317.417 289.122 304.288 281.503 303.261 282.77C302.233 284.036 306.133 286.703 310.297 289.035C314.462 291.367 300.998 285.396 299.982 285.741C298.965 286.086 298.263 287.057 299.982 288.297C298.807 289.22 298.817 290.12 300.009 290.999C301.202 291.878 303.317 293.465 306.353 295.759C302.744 294.276 300.785 293.701 300.475 294.032C300.246 294.278 302.389 296.716 310.297 301.264C312.161 302.335 316.03 304.198 321.905 306.85L327.307 299.748Z" fill="#FFD3C8"/>
<path fill-rule="evenodd" clip-rule="evenodd" d="M327.94 299.036L316.204 306.85L322.58 308.371L327.94 299.036Z" fill="#F1B2A2"/>
</g>
<path d="M300.122 288.536L310.169 293.853" stroke="#301913" stroke-width="0.65"/>
<path d="M313.715 286.764C319.134 289.324 322.089 291.293 322.58 292.671" stroke="#301913" stroke-width="0.65"/>
<path fill-rule="evenodd" clip-rule="evenodd" d="M385.125 372.902L388.406 437.564C388.455 438.541 389.288 439.293 390.266 439.244C391.158 439.199 391.877 438.498 391.944 437.608L396.982 371.447L385.125 372.902Z" fill="black"/>
<path fill-rule="evenodd" clip-rule="evenodd" d="M411.009 446.591L411.82 447.455H369.859C379.844 435.882 397.323 434.59 408.901 444.57C409.639 445.206 410.342 445.881 411.009 446.591Z" fill="black"/>
<path fill-rule="evenodd" clip-rule="evenodd" d="M411.009 382.004L411.82 381.14H369.859C379.844 392.713 397.323 394.005 408.901 384.024C409.639 383.388 410.342 382.714 411.009 382.004Z" fill="black"/>
<path fill-rule="evenodd" clip-rule="evenodd" d="M420.012 273.916C404.935 270.394 396.566 279.797 394.719 294.425C392.871 309.053 393.219 349.667 340.905 360.884C338.061 361.76 335.187 362.198 332.284 362.198C325.398 362.198 323.127 362.06 322.671 364.125C322.016 367.093 324.884 368.316 331.276 367.796C350.038 381.257 373.994 387.008 403.143 385.05C446.867 382.114 445.96 352.309 445.96 346.637C445.96 340.964 444.052 321.778 453.587 306.396C463.123 291.013 460.08 276.471 451.16 274.849C442.24 273.228 435.088 277.438 420.012 273.916Z" fill="#FF6F66"/>
<path d="M452.442 284.778C451.046 280.909 447.842 279.726 442.83 281.229C435.313 283.483 425.708 281.433 417.805 280.047C409.902 278.662 401.596 278.705 401.126 295.935C400.656 313.166 392.602 349.377 367.571 356.987" stroke="#701F1A" stroke-width="0.65"/>
<path d="M324.058 367.187C331.71 368.895 340.45 367.793 350.278 363.881" stroke="#701F1A" stroke-width="0.65"/>
<path d="M127.881 220.606C114.928 241.628 109.736 271.359 112.303 309.799" stroke="black" stroke-width="0.65"/>
<path d="M143.205 234.989C125.171 220.222 114.871 244.814 112.303 308.766" stroke="black" stroke-width="0.65"/>
<path d="M87.7572 224.8C112.934 207.375 121.32 235.364 112.916 308.766" stroke="black" stroke-width="0.65"/>
<path d="M90.2029 257.74C107.745 251.156 115.471 267.797 113.378 307.662" stroke="black" stroke-width="0.65"/>
<path d="M112.132 234.377C120.663 253.063 121.317 276.964 114.092 306.079" stroke="black" stroke-width="0.65"/>
<path fill-rule="evenodd" clip-rule="evenodd" d="M143.513 341.582L142.794 346.183L135.735 352.665L84.2117 351.663V348.363L143.513 341.582Z" fill="#607385"/>
<path fill-rule="evenodd" clip-rule="evenodd" d="M96.5763 341.582L84.2117 348.328L134.567 349.514L143.513 341.582H96.5763Z" fill="#91ADC8"/>
<mask id="mask20_103_807" style="mask-type:alpha" maskUnits="userSpaceOnUse" x="65" y="216" width="41" height="36">
<path d="M87.5797 224.808C86.778 223.698 87.4621 222.77 88.8997 222.57C90.3374 222.37 92.3375 217.68 85.6375 216.543C78.9375 215.405 77.8222 219.402 76.3963 219.402C75.719 219.402 70.7158 221.221 69.0772 225.967C67.2659 231.214 69.9911 237.324 68.2775 240.201C67.402 241.671 61.003 254.058 71.2119 250.808C81.4209 247.559 81.6008 246.691 84.9009 247.573C88.2011 248.455 99.9518 245.348 103.755 237.324C107.558 229.3 105.441 222.65 100.193 221.989C94.9444 221.329 92.6844 222.137 91.2752 223.505C89.866 224.874 88.3814 225.918 87.5797 224.808Z" fill="white"/>
</mask>
<g mask="url(#mask20_103_807)">
<path d="M87.5797 224.808C86.778 223.698 87.4621 222.77 88.8997 222.57C90.3374 222.37 92.3375 217.68 85.6375 216.543C78.9375 215.405 77.8222 219.402 76.3963 219.402C75.719 219.402 70.7158 221.221 69.0772 225.967C67.2659 231.214 69.9911 237.324 68.2775 240.201C67.402 241.671 61.003 254.058 71.2119 250.808C81.4209 247.559 81.6008 246.691 84.9009 247.573C88.2011 248.455 99.9518 245.348 103.755 237.324C107.558 229.3 105.441 222.65 100.193 221.989C94.9444 221.329 92.6844 222.137 91.2752 223.505C89.866 224.874 88.3814 225.918 87.5797 224.808Z" fill="#009C58"/>
<path d="M87.7572 225.027C76.9361 233.882 69.7763 242.389 66.2777 250.55" stroke="black" stroke-width="0.65"/>
<path d="M77.8901 233.844C80.2354 237.956 80.4569 242.747 78.5546 248.217" stroke="black" stroke-width="0.65"/>
<path d="M75.6066 236.421C72.5681 235.405 70.331 236.023 68.8953 238.274" stroke="black" stroke-width="0.65"/>
<path d="M84.0784 228.233C88.9835 233.25 90.2098 239.673 87.7572 247.504" stroke="black" stroke-width="0.65"/>
<path d="M80.855 230.943C76.9488 229.009 72.8155 229.009 68.455 230.943" stroke="black" stroke-width="0.65"/>
<path d="M86.3429 226.26C94.7141 228.411 100.352 232.416 103.256 238.274" stroke="black" stroke-width="0.65"/>
<path d="M85.5937 226.602C84.776 222.496 81.447 220.124 75.6066 219.486" stroke="black" stroke-width="0.65"/>
</g>
<mask id="mask21_103_807" style="mask-type:alpha" maskUnits="userSpaceOnUse" x="84" y="309" width="60" height="39">
<path d="M84.2117 309.799H143.513L131.072 345.76C129.918 347.373 124.544 348.089 114.95 347.907C105.356 347.726 99.395 347.01 97.0671 345.76L84.2117 309.799Z" fill="white"/>
</mask>
<g mask="url(#mask21_103_807)">
<path d="M84.2117 309.799H143.513L131.072 345.76C129.918 347.373 124.544 348.089 114.95 347.907C105.356 347.726 99.395 347.01 97.0671 345.76L84.2117 309.799Z" fill="#FFCF57"/>
<path opacity="0.379185" fill-rule="evenodd" clip-rule="evenodd" d="M129.267 311.453C112.698 312.374 104.666 317.626 105.17 327.209C105.927 341.582 127.685 334.956 131.46 346.761C133.976 354.631 119.409 356.254 87.7572 351.63L78.7883 306.079L127.098 307.662L129.267 311.453Z" fill="#DB9601"/>
<path d="M80.147 312.758C102.684 317.93 125.985 317.495 150.048 311.453" stroke="white" stroke-width="0.65"/>
</g>
<path d="M113.862 313.106C130.238 313.106 143.513 311.533 143.513 309.593C143.513 307.652 130.238 306.079 113.862 306.079C97.4867 306.079 84.2117 307.652 84.2117 309.593C84.2117 311.533 97.4867 313.106 113.862 313.106Z" fill="#A17101"/>
<path d="M114.07 311.453C128.04 311.453 139.366 310.25 139.366 308.766C139.366 307.282 128.04 306.079 114.07 306.079C100.099 306.079 88.7733 307.282 88.7733 308.766C88.7733 310.25 100.099 311.453 114.07 311.453Z" fill="#2E1E00"/>
<mask id="mask22_103_807" style="mask-type:alpha" maskUnits="userSpaceOnUse" x="96" y="225" width="32" height="40">
<path d="M112.943 231.961C113.129 233.42 112.943 234.503 111.272 234.423C109.6 234.342 109.068 231.896 109.725 229.867C110.381 227.838 107.45 224.367 101.436 226.73C95.4216 229.092 93.0042 241.067 102.685 249.085C112.365 257.103 112.36 264.411 113.831 264.411C115.302 264.411 115.166 257.048 122.67 250.65C130.175 244.252 128.937 232.049 122.992 227.664C117.047 223.279 112.163 226.842 111.918 228.432C111.672 230.022 112.757 230.502 112.943 231.961Z" fill="white"/>
</mask>
<g mask="url(#mask22_103_807)">
<path d="M112.943 231.961C113.129 233.42 112.943 234.503 111.272 234.423C109.6 234.342 109.068 231.896 109.725 229.867C110.381 227.838 107.45 224.367 101.436 226.73C95.4216 229.092 93.0042 241.067 102.685 249.085C112.365 257.103 112.36 264.411 113.831 264.411C115.302 264.411 115.166 257.048 122.67 250.65C130.175 244.252 128.937 232.049 122.992 227.664C117.047 223.279 112.163 226.842 111.918 228.432C111.672 230.022 112.757 230.502 112.943 231.961Z" fill="#7CC08F"/>
<path d="M111.74 234.377C113.831 246.511 114.528 256.522 113.831 264.411" stroke="black" stroke-width="0.65"/>
<path d="M113.378 245.435C111.11 246.638 109.337 249.672 108.057 254.538" stroke="black" stroke-width="0.65"/>
<path d="M112.916 241.119C117.375 241.755 121.034 244.513 123.893 249.394" stroke="black" stroke-width="0.65"/>
<path d="M112.303 237.057C106.452 237.118 102.535 240.453 100.549 247.062" stroke="black" stroke-width="0.65"/>
<path d="M112.024 234.989C117.495 231.728 122.494 231.304 127.02 233.716" stroke="black" stroke-width="0.65"/>
<path d="M112.024 236.379C105.366 232.724 100.335 234.18 96.9301 240.747" stroke="black" stroke-width="0.65"/>
</g>
<mask id="mask23_103_807" style="mask-type:alpha" maskUnits="userSpaceOnUse" x="133" y="227" width="31" height="41">
<path d="M141.858 233.62C136.16 232.045 133.311 234.965 133.311 242.38C133.311 253.501 148.813 256.755 153.039 260.16C157.266 263.565 156.34 267.957 159.047 266.946C161.754 265.934 167.97 246.665 159.047 240.506C157.328 232.369 154.076 228.073 149.292 227.617C144.507 227.16 142.029 229.161 141.858 233.62Z" fill="white"/>
</mask>
<g mask="url(#mask23_103_807)">
<path d="M141.858 233.62C136.16 232.045 133.311 234.965 133.311 242.38C133.311 253.501 148.813 256.755 153.039 260.16C157.266 263.565 156.34 267.957 159.047 266.946C161.754 265.934 167.97 246.665 159.047 240.506C157.328 232.369 154.076 228.073 149.292 227.617C144.507 227.16 142.029 229.161 141.858 233.62Z" fill="#009C58"/>
<path d="M141.734 233.583C153.385 241.934 158.913 253.105 158.319 267.093" stroke="black" stroke-width="0.65"/>
<path d="M152.798 244.585C157.468 245.155 161.097 247.072 163.685 250.338" stroke="black" stroke-width="0.65"/>
<path d="M151.184 242.589C149.053 245.392 149.672 251.249 153.039 260.16" stroke="black" stroke-width="0.65"/>
<path d="M147.503 238.395C142.009 242.324 141.3 248.234 145.377 256.126" stroke="black" stroke-width="0.65"/>
<path d="M149.219 240.043C151.828 237.499 155.085 237.499 158.989 240.043" stroke="black" stroke-width="0.65"/>
<path d="M143.955 235.26C137.642 237.242 135.464 242.507 137.421 251.055" stroke="black" stroke-width="0.65"/>
<path d="M145.474 236.337C145.446 230.986 148.323 228.76 154.104 229.659" stroke="black" stroke-width="0.65"/>
</g>
<mask id="mask24_103_807" style="mask-type:alpha" maskUnits="userSpaceOnUse" x="76" y="250" width="28" height="32">
<path d="M89.9942 254.632C91.6836 253.006 90.0105 248.852 84.4321 250.355C78.8538 251.858 75.5447 257.674 76.9896 265.346C77.3624 267.004 77.8371 268.226 78.4139 269.011C79.279 270.19 78.039 274.195 78.7624 276.957C79.4858 279.719 82.4476 282.694 84.8017 280.346C87.1558 277.998 89.6822 276.32 93.3709 276.126C97.0595 275.932 104.918 270.139 103.609 263.039C102.3 255.939 95.9044 252.474 93.9018 253.9C91.8991 255.326 93.152 257.48 91.6235 257.838C90.0949 258.195 88.3048 256.259 89.9942 254.632Z" fill="white"/>
</mask>
<g mask="url(#mask24_103_807)">
<path d="M89.9942 254.632C91.6836 253.006 90.0105 248.852 84.4321 250.355C78.8538 251.858 75.5447 257.674 76.9896 265.346C77.3624 267.004 77.8371 268.226 78.4139 269.011C79.279 270.19 78.039 274.195 78.7624 276.957C79.4858 279.719 82.4476 282.694 84.8017 280.346C87.1558 277.998 89.6822 276.32 93.3709 276.126C97.0595 275.932 104.918 270.139 103.609 263.039C102.3 255.939 95.9044 252.474 93.9018 253.9C91.8991 255.326 93.152 257.48 91.6235 257.838C90.0949 258.195 88.3048 256.259 89.9942 254.632Z" fill="#009C58"/>
<path d="M90.2029 257.74C84.0428 264.56 81.193 272.239 81.6536 280.778" stroke="black" stroke-width="0.65"/>
<path d="M84.7735 265.614C87.8433 269.501 88.9498 273.544 88.0929 277.742" stroke="black" stroke-width="0.65"/>
<path d="M83.3099 268.421C81.0988 268.245 79.5916 268.744 78.7883 269.918" stroke="black" stroke-width="0.65"/>
<path d="M87.7572 260.796C94.3191 263.596 96.8274 268.539 95.2821 275.623" stroke="black" stroke-width="0.65"/>
<path d="M89.6656 258.499C97.0703 259.679 101.767 262.378 103.755 266.596" stroke="black" stroke-width="0.65"/>
<path d="M86.3428 262.791C82.6 260.583 79.3694 260.502 76.6509 262.547" stroke="black" stroke-width="0.65"/>
<path d="M88.9356 259.25C87.1108 254.942 83.8727 253.095 79.2212 253.71" stroke="black" stroke-width="0.65"/>
</g>
<mask id="mask25_103_807" style="mask-type:alpha" maskUnits="userSpaceOnUse" x="116" y="209" width="31" height="18">
<path d="M122.294 223.404C124.381 222.176 126.375 220.37 127.244 221.364C128.112 222.357 125.977 223.447 126.779 224.827C127.58 226.207 137.384 228.454 141.394 225.555C145.405 222.657 147.927 215.985 145.546 215.055C143.165 214.124 143.345 214.124 143.165 213.034C142.986 211.944 139.551 209.434 135.155 210.062C130.76 210.69 130.475 212.531 126.494 212.76C122.512 212.99 115.97 215.055 116.158 219.448C116.347 223.841 120.207 224.632 122.294 223.404Z" fill="white"/>
</mask>
<g mask="url(#mask25_103_807)">
<path d="M122.294 223.404C124.381 222.176 126.375 220.37 127.244 221.364C128.112 222.357 125.977 223.447 126.779 224.827C127.58 226.207 137.384 228.454 141.394 225.555C145.405 222.657 147.927 215.985 145.546 215.055C143.165 214.124 143.345 214.124 143.165 213.034C142.986 211.944 139.551 209.434 135.155 210.062C130.76 210.69 130.475 212.531 126.494 212.76C122.512 212.99 115.97 215.055 116.158 219.448C116.347 223.841 120.207 224.632 122.294 223.404Z" fill="#7CC08F"/>
<path d="M126.958 221.103C131.428 215.037 135.431 211.43 138.969 210.283" stroke="black" stroke-width="0.65"/>
<path d="M131.312 215.884C136.02 216.283 139.984 215.449 143.205 213.383" stroke="black" stroke-width="0.65"/>
<path d="M131.312 215.693C129.957 214.463 129.768 213.074 130.746 211.528" stroke="black" stroke-width="0.65"/>
<path d="M128.377 219.348C137.368 221.28 143.328 220.986 146.255 218.464" stroke="black" stroke-width="0.65"/>
<path d="M127.378 220.606C133.387 224.686 138.663 225.789 143.205 223.914" stroke="black" stroke-width="0.65"/>
<path d="M129.036 218.464C126.401 216.805 125.248 214.93 125.577 212.839" stroke="black" stroke-width="0.65"/>
<path d="M127.378 220.606C120.347 221.288 117.073 219.813 117.555 216.18" stroke="black" stroke-width="0.65"/>
</g>
<path d="M126.303 351.272L111.167 447.455" stroke="#607385" stroke-width="1.3"/>
<path d="M99.708 351.272L78.2257 447.455" stroke="#607385" stroke-width="1.3"/>
<path d="M128.3 351.272L151.848 447.455" stroke="#607385" stroke-width="1.3"/>
<path d="M101.275 351.272L118.735 447.455" stroke="#607385" stroke-width="1.3"/>
<path d="M82.4843 429.612L113.24 430.953" stroke="#607385" stroke-width="1.3"/>
<path d="M89.7485 395.938L118.735 396.314" stroke="#607385" stroke-width="1.3"/>
<path d="M96.6525 365.01H124.469" stroke="#607385" stroke-width="1.3"/>
<path d="M131.982 367.46H104.288" stroke="#607385" stroke-width="1.3"/>
<path d="M140.074 398.181H110.198" stroke="#607385" stroke-width="1.3"/>
<path d="M146.278 426.154L114.669 425.947" stroke="#607385" stroke-width="1.3"/>
<g filter="url(#filter0_d_103_807)">
<path d="M290.833 214.689H336.37C337.289 214.689 338.056 215.39 338.137 216.305L339.548 232.256C339.634 233.231 338.913 234.091 337.938 234.177C337.886 234.182 337.834 234.184 337.782 234.184H292.276C291.359 234.184 290.593 233.485 290.51 232.572L289.067 216.621C288.979 215.646 289.698 214.784 290.674 214.696C290.727 214.691 290.78 214.689 290.833 214.689Z" fill="black"/>
</g>
<path d="M290.833 214.689H336.37C337.289 214.689 338.056 215.39 338.137 216.305L339.548 232.256C339.634 233.231 338.913 234.091 337.938 234.177C337.886 234.182 337.834 234.184 337.782 234.184H292.276C291.359 234.184 290.593 233.485 290.51 232.572L289.067 216.621C288.979 215.646 289.698 214.784 290.674 214.696C290.727 214.691 290.78 214.689 290.833 214.689Z" fill="white"/>
<path d="M308.396 219.71H333.218" stroke="#66CBF8" stroke-width="1.3" stroke-linecap="round"/>
<path d="M298.644 222.96C300.113 222.96 301.304 221.769 301.304 220.301C301.304 218.833 300.113 217.643 298.644 217.643C297.175 217.643 295.985 218.833 295.985 220.301C295.985 221.769 297.175 222.96 298.644 222.96Z" fill="url(#paint1_linear_103_807)"/>
<path d="M299.235 231.23C300.704 231.23 301.895 230.04 301.895 228.572C301.895 227.104 300.704 225.913 299.235 225.913C297.766 225.913 296.576 227.104 296.576 228.572C296.576 230.04 297.766 231.23 299.235 231.23Z" fill="url(#paint2_linear_103_807)"/>
<path d="M309.578 228.572H335.582" stroke="#66CBF8" stroke-width="1.3" stroke-linecap="round"/>
<g filter="url(#filter1_d_103_807)">
<path d="M293.198 239.501H338.735C339.653 239.501 340.42 240.203 340.501 241.118L341.912 257.069C341.998 258.044 341.277 258.904 340.302 258.99C340.25 258.995 340.198 258.997 340.146 258.997H294.644C293.727 258.997 292.962 258.298 292.879 257.385L291.432 241.434C291.343 240.459 292.062 239.597 293.038 239.509C293.091 239.504 293.144 239.501 293.198 239.501Z" fill="black"/>
</g>
<path d="M293.198 239.501H338.735C339.653 239.501 340.42 240.203 340.501 241.118L341.912 257.069C341.998 258.044 341.277 258.904 340.302 258.99C340.25 258.995 340.198 258.997 340.146 258.997H294.644C293.727 258.997 292.962 258.298 292.879 257.385L291.432 241.434C291.343 240.459 292.062 239.597 293.038 239.509C293.091 239.504 293.144 239.501 293.198 239.501Z" fill="white"/>
<path d="M310.169 243.932H336.173" stroke="#66CBF8" stroke-width="1.3" stroke-linecap="round"/>
<path fill-rule="evenodd" clip-rule="evenodd" d="M300.321 242.455H305.7C306.322 242.455 306.848 242.916 306.93 243.533L307.619 248.732C307.709 249.411 307.231 250.035 306.551 250.125C306.497 250.132 306.443 250.135 306.388 250.135H300.88C300.246 250.135 299.714 249.658 299.647 249.027L299.087 243.829C299.014 243.147 299.507 242.536 300.189 242.462C300.233 242.458 300.277 242.455 300.321 242.455Z" fill="url(#paint3_linear_103_807)"/>
<path d="M310.76 248.068H337.355" stroke="#66CBF8" stroke-width="1.3" stroke-linecap="round"/>
<path d="M301.304 255.157H338.536" stroke="#66CBF8" stroke-width="1.3" stroke-linecap="round"/>
<mask id="mask26_103_807" style="mask-type:alpha" maskUnits="userSpaceOnUse" x="219" y="189" width="69" height="70">
<path d="M222.293 189.876H279.124C280.659 189.876 281.938 191.051 282.068 192.58L287.438 255.793C287.577 257.419 286.37 258.848 284.744 258.986C284.661 258.993 284.578 258.997 284.494 258.997H226.096C224.533 258.997 223.24 257.78 223.146 256.22L219.343 193.007C219.245 191.379 220.486 189.979 222.115 189.881C222.175 189.878 222.234 189.876 222.293 189.876Z" fill="white"/>
</mask>
<g mask="url(#mask26_103_807)">
<g filter="url(#filter2_d_103_807)">
<path d="M222.293 189.876H279.124C280.659 189.876 281.938 191.051 282.068 192.58L287.438 255.793C287.577 257.419 286.37 258.848 284.744 258.986C284.661 258.993 284.578 258.997 284.494 258.997H226.096C224.533 258.997 223.24 257.78 223.146 256.22L219.343 193.007C219.245 191.379 220.486 189.979 222.115 189.881C222.175 189.878 222.234 189.876 222.293 189.876Z" fill="black"/>
</g>
<path d="M222.293 189.876H279.124C280.659 189.876 281.938 191.051 282.068 192.58L287.438 255.793C287.577 257.419 286.37 258.848 284.744 258.986C284.661 258.993 284.578 258.997 284.494 258.997H226.096C224.533 258.997 223.24 257.78 223.146 256.22L219.343 193.007C219.245 191.379 220.486 189.979 222.115 189.881C222.175 189.878 222.234 189.876 222.293 189.876Z" fill="white"/>
<g opacity="0.771647">
<g opacity="0.771647">
<g opacity="0.771647">
<g opacity="0.771647">
<mask id="mask27_103_807" style="mask-type:alpha" maskUnits="userSpaceOnUse" x="229" y="228" width="60" height="32">
<g opacity="0.771647">
<path opacity="0.771647" d="M229.43 244.507C232.933 235.797 239.462 231.006 249.017 230.137C258.572 229.268 264.263 228.847 266.091 228.874C266.246 228.674 266.355 228.577 266.418 228.581C272.63 229.044 277.479 232.347 281.053 237.866C284.682 243.468 287.173 250.633 288.529 259.36H229.43V244.507Z" fill="white"/>
</g>
</mask>
<g mask="url(#mask27_103_807)">
<path opacity="0.771647" d="M229.43 244.507C232.933 235.797 239.462 231.006 249.017 230.137C258.572 229.268 264.263 228.847 266.091 228.874C266.246 228.674 266.355 228.577 266.418 228.581C272.63 229.044 277.479 232.347 281.053 237.866C284.682 243.468 287.173 250.633 288.529 259.36H229.43V244.507Z" fill="#FF9378"/>
<path opacity="0.771647" fill-rule="evenodd" clip-rule="evenodd" d="M283.775 240.695L275.94 245.43C278.166 255.139 277.212 260.599 273.076 261.811C268.941 263.023 274.764 263.023 290.546 261.811L287.325 242.556L283.775 240.695Z" fill="#FFD3C8"/>
<path opacity="0.771647" fill-rule="evenodd" clip-rule="evenodd" d="M230.694 241.569L238.359 248.425C236.664 254.21 236.664 258.372 238.359 260.912C240.053 263.452 235.289 263.452 224.066 260.912L228.786 241.569H230.694Z" fill="#FFD3C8"/>
<path opacity="0.771647" fill-rule="evenodd" clip-rule="evenodd" d="M230.694 241.569L236.079 246.39C232.946 252.267 232.19 257.362 233.811 261.674C235.057 264.988 231.809 265.369 224.066 262.817C225.807 255.013 227.316 249.063 228.594 244.966C229.871 240.87 230.572 239.737 230.694 241.569Z" fill="#F1B2A2"/>
</g>
</g>
<g opacity="0.771647">
<g opacity="0.771647">
<mask id="mask28_103_807" style="mask-type:alpha" maskUnits="userSpaceOnUse" x="248" y="205" width="22" height="31">
<g opacity="0.771647">
<path opacity="0.771647" d="M266.219 208.846C271.073 217.846 270.669 223.067 265.007 224.508C262.131 226.313 260.848 227.311 261.156 227.504C261.465 227.696 263.264 228.056 266.554 228.584C265.229 232.978 262.174 235.295 257.392 235.536C252.609 235.776 249.498 234.008 248.058 230.232C249.073 229.98 249.815 229.802 250.285 229.699C252.171 229.282 253.415 228.966 253.347 228.324C253.29 227.776 253.278 224.423 251.857 221.468C251.278 220.266 250.026 218.415 248.098 215.914C250.239 212.652 252.183 209.953 253.929 207.819C255.675 205.685 258.411 205.075 262.139 205.988C263.7 206.357 264.728 206.714 265.222 207.061C265.717 207.407 266.05 208.002 266.219 208.846Z" fill="white"/>
</g>
</mask>
<g mask="url(#mask28_103_807)">
<path opacity="0.771647" d="M266.22 208.846C271.074 217.846 270.669 223.066 265.007 224.507C262.131 226.312 260.847 227.311 261.156 227.503C261.465 227.696 263.264 228.056 266.554 228.583C265.228 232.977 262.174 235.295 257.391 235.535C252.608 235.776 249.497 234.008 248.057 230.232C249.072 229.981 249.814 229.803 250.284 229.699C252.17 229.282 253.414 228.966 253.347 228.324C253.289 227.776 253.278 224.424 251.856 221.468C251.278 220.266 250.025 218.415 248.098 215.915C250.239 212.652 252.183 209.954 253.929 207.82C255.675 205.686 258.412 205.075 262.14 205.989C263.701 206.357 264.729 206.714 265.223 207.061C265.718 207.407 266.051 208.002 266.22 208.846Z" fill="#FFD3C8"/>
<path opacity="0.771647" fill-rule="evenodd" clip-rule="evenodd" d="M260.099 224.883C258.528 224.609 257.191 223.956 256.086 222.925C257.11 226.344 258.758 227.857 261.03 227.465C263.302 227.072 262.992 226.211 260.099 224.883Z" fill="#F1B2A2"/>
</g>
</g>
<path opacity="0.771647" d="M258.479 213.863C259.342 213.208 260.279 213.109 261.292 213.567" stroke="#061537" stroke-width="0.65" stroke-linecap="round"/>
<path opacity="0.771647" d="M264.115 213.153C264.865 212.864 265.524 212.902 266.09 213.269" stroke="#061537" stroke-width="0.65" stroke-linecap="round"/>
<path opacity="0.771647" fill-rule="evenodd" clip-rule="evenodd" d="M264.201 207.605C262.041 212.543 258.169 215.085 252.587 215.232C251.36 214.71 250.667 214.887 250.509 215.763C250.272 217.077 251.046 217.578 252.426 217.948L253.346 228.324C252.532 228.41 251.452 228.509 250.107 228.622C248.762 228.735 247.62 228.694 246.681 228.498L246.931 225.876L245.056 228.008C240.73 226.491 238.25 225.502 237.616 225.041C240.719 222.123 242.765 218.984 243.753 215.624C245.236 210.585 247.08 201.688 254.357 200.216C261.635 198.744 266.586 202.16 268.187 208.091C269.789 214.021 271.998 225.64 275.086 225.836C270.342 226.42 267.717 226.753 267.212 226.836C266.806 226.903 266.36 226.191 265.876 224.703L265.015 227.182L261.097 227.51L260.1 224.884C265.379 224.443 267.464 219.836 266.355 211.063C265.574 210.531 265.024 209.984 264.704 209.423C264.384 208.861 264.216 208.255 264.201 207.605Z" fill="#061537"/>
<path opacity="0.771647" d="M263.251 214.442C263.002 215.122 263.155 215.756 263.71 216.343C264.543 217.224 264.669 218.423 262.613 218.205" stroke="#9D3F28" stroke-width="0.65" stroke-linecap="round"/>
<path opacity="0.771647" d="M260.68 216.085C261.179 216.032 261.542 215.585 261.489 215.086C261.437 214.587 260.989 214.225 260.49 214.277C259.99 214.329 259.628 214.777 259.681 215.276C259.733 215.775 260.181 216.137 260.68 216.085Z" fill="#061537"/>
<path opacity="0.771647" d="M261.139 215.023C261.139 215.023 260.318 214.55 259.638 215.227" stroke="#061537" stroke-width="0.65"/>
<path opacity="0.771647" fill-rule="evenodd" clip-rule="evenodd" d="M258.062 214.565L258.115 215.067C258.245 216.302 259.352 217.198 260.587 217.068C261.822 216.938 262.718 215.832 262.588 214.598L262.535 214.096L258.062 214.565Z" stroke="white" stroke-width="0.65"/>
<path opacity="0.771647" fill-rule="evenodd" clip-rule="evenodd" d="M263.901 213.952L263.954 214.454C264.084 215.689 265.19 216.584 266.425 216.455C267.66 216.325 268.556 215.219 268.426 213.984L268.374 213.482L263.901 213.952Z" stroke="white" stroke-width="0.65"/>
<path opacity="0.771647" d="M265.351 215.594C265.85 215.542 266.213 215.094 266.16 214.595C266.108 214.096 265.66 213.734 265.161 213.786C264.661 213.839 264.299 214.286 264.352 214.785C264.404 215.284 264.852 215.647 265.351 215.594Z" fill="#061537"/>
<path opacity="0.771647" d="M265.81 214.519C265.81 214.519 264.98 214.061 264.312 214.749" stroke="#061537" stroke-width="0.65"/>
<path opacity="0.771647" d="M257.852 214.481L252.46 214.857" stroke="white" stroke-width="0.65" stroke-linecap="round"/>
<path opacity="0.771647" d="M262.775 214.393L263.811 214.284" stroke="white" stroke-width="0.65"/>
<path opacity="0.771647" fill-rule="evenodd" clip-rule="evenodd" d="M263.225 221.562C262.538 221.693 261.776 221.318 260.941 220.435C261.946 220.651 262.676 220.735 263.133 220.687C263.589 220.639 264.114 220.423 264.707 220.04C264.406 220.924 263.912 221.431 263.225 221.562Z" fill="white" stroke="#9D3F28" stroke-width="0.65" stroke-linecap="round"/>
</g>
</g>
<g opacity="0.771647">
<path opacity="0.771647" fill-rule="evenodd" clip-rule="evenodd" d="M226.56 226.615L219.879 259.36H231.387L232.168 227.527L226.56 226.615Z" fill="#FFD3C8"/>
<mask id="mask29_103_807" style="mask-type:alpha" maskUnits="userSpaceOnUse" x="219" y="215" width="25" height="13">
<g opacity="0.771647">
<path opacity="0.771647" d="M226.51 218.676C228.499 217.436 230.482 216.576 232.459 216.097C234.437 215.619 235.601 215.304 235.952 215.155C236.196 215.647 236.013 216.213 235.403 216.854C234.488 217.815 231.44 218.277 232.46 218.996C233.48 219.716 238.788 219.93 241.794 220.923C244.8 221.915 242.731 222.627 241.714 222.626C242.831 222.95 243.31 223.364 243.15 223.868C243.013 224.304 242.093 224.351 242.426 224.452C243.028 224.633 243.128 225.456 242.332 225.702C242.179 225.749 241.973 225.776 241.716 225.865C241.458 225.954 241.973 226.345 241.052 226.673C239.79 227.121 238.036 227.107 237.284 227.204C236.122 227.353 234.917 227.806 232.664 227.341C229.96 226.783 226.013 224.613 224.406 224.295C221.46 223.711 214.541 217.039 226.51 218.676Z" fill="white"/>
</g>
</mask>
<g mask="url(#mask29_103_807)">
<path opacity="0.771647" d="M232.532 226.962C234.327 225.455 235.758 223.835 236.824 222.103C237.891 220.371 238.549 219.361 238.8 219.074C238.407 218.69 237.812 218.689 237.014 219.071C235.817 219.643 234.436 222.398 234.067 221.206C233.697 220.014 235.133 214.902 235.118 211.738C235.103 208.573 233.786 210.32 233.472 211.287C233.51 210.125 233.264 209.542 232.734 209.537C232.277 209.533 231.949 210.394 231.956 210.046C231.969 209.417 231.217 209.068 230.737 209.749C230.645 209.88 230.556 210.067 230.392 210.285C230.227 210.502 230.014 209.891 229.418 210.666C228.601 211.727 228.073 213.399 227.749 214.084C227.247 215.142 226.444 216.149 226.19 218.434C225.885 221.177 226.73 225.6 226.536 227.226C226.182 230.207 230.392 238.847 232.532 226.962Z" fill="#FFD3C8"/>
</g>
</g>
</g>
</g>
</g>
<g filter="url(#filter3_d_103_807)">
<path d="M286.696 165.063H332.233C333.152 165.063 333.919 165.765 334 166.68L335.411 182.631C335.497 183.606 334.776 184.466 333.801 184.552C333.749 184.557 333.697 184.559 333.645 184.559H288.139C287.222 184.559 286.456 183.86 286.373 182.946L284.93 166.995C284.842 166.02 285.561 165.159 286.537 165.071C286.59 165.066 286.643 165.063 286.696 165.063Z" fill="black"/>
</g>
<path d="M286.696 165.063H332.233C333.152 165.063 333.919 165.765 334 166.68L335.411 182.631C335.497 183.606 334.776 184.466 333.801 184.552C333.749 184.557 333.697 184.559 333.645 184.559H288.139C287.222 184.559 286.456 183.86 286.373 182.946L284.93 166.995C284.842 166.02 285.561 165.159 286.537 165.071C286.59 165.066 286.643 165.063 286.696 165.063Z" fill="white"/>
<path d="M295.689 179.242C298.137 179.242 300.122 177.258 300.122 174.811C300.122 172.364 298.137 170.38 295.689 170.38C293.241 170.38 291.257 172.364 291.257 174.811C291.257 177.258 293.241 179.242 295.689 179.242Z" fill="url(#paint4_linear_103_807)"/>
<path d="M305.441 171.267H330.263" stroke="#66CBF8" stroke-width="1.3" stroke-linecap="round"/>
<path d="M306.032 177.174H323.762" stroke="#66CBF8" stroke-width="1.3" stroke-linecap="round"/>
<g filter="url(#filter4_d_103_807)">
<path d="M289.061 189.876H334.598C335.516 189.876 336.283 190.577 336.364 191.492L337.775 207.443C337.861 208.418 337.14 209.279 336.165 209.365C336.113 209.369 336.061 209.372 336.009 209.372H290.507C289.59 209.372 288.825 208.672 288.742 207.759L287.295 191.808C287.207 190.834 287.925 189.972 288.901 189.883C288.954 189.878 289.007 189.876 289.061 189.876Z" fill="black"/>
</g>
<path d="M289.061 189.876H334.598C335.516 189.876 336.283 190.577 336.364 191.492L337.775 207.443C337.861 208.418 337.14 209.279 336.165 209.365C336.113 209.369 336.061 209.372 336.009 209.372H290.507C289.59 209.372 288.825 208.672 288.742 207.759L287.295 191.808C287.207 190.834 287.925 189.972 288.901 189.883C288.954 189.878 289.007 189.876 289.061 189.876Z" fill="white"/>
<path d="M307.214 196.079H332.036" stroke="#66CBF8" stroke-width="1.3" stroke-linecap="round"/>
<path fill-rule="evenodd" clip-rule="evenodd" d="M293.222 194.011H300.681C301.574 194.011 302.327 194.675 302.44 195.561L303.414 203.241C303.538 204.212 302.85 205.099 301.879 205.222C301.805 205.232 301.73 205.236 301.655 205.236H294.013C293.104 205.236 292.342 204.549 292.249 203.645L291.458 195.965C291.358 194.992 292.066 194.121 293.04 194.021C293.1 194.015 293.161 194.011 293.222 194.011Z" fill="url(#paint5_linear_103_807)"/>
<path d="M307.805 201.987H325.535" stroke="#66CBF8" stroke-width="1.3" stroke-linecap="round"/>
<defs>
<filter id="filter0_d_103_807" x="282.06" y="214.689" width="57.4948" height="29.4957" filterUnits="userSpaceOnUse" color-interpolation-filters="sRGB">
<feFlood flood-opacity="0" result="BackgroundImageFix"/>
<feColorMatrix in="SourceAlpha" type="matrix" values="0 0 0 0 0 0 0 0 0 0 0 0 0 0 0 0 0 0 127 0" result="hardAlpha"/>
<feOffset dx="-4" dy="7"/>
<feGaussianBlur stdDeviation="1.5"/>
<feColorMatrix type="matrix" values="0 0 0 0 0.349883 0 0 0 0 0.556512 0 0 0 0 0.689595 0 0 0 0.143985 0"/>
<feBlend mode="normal" in2="BackgroundImageFix" result="effect1_dropShadow_103_807"/>
<feBlend mode="normal" in="SourceGraphic" in2="effect1_dropShadow_103_807" result="shape"/>
</filter>
<filter id="filter1_d_103_807" x="284.425" y="239.501" width="57.4943" height="29.4957" filterUnits="userSpaceOnUse" color-interpolation-filters="sRGB">
<feFlood flood-opacity="0" result="BackgroundImageFix"/>
<feColorMatrix in="SourceAlpha" type="matrix" values="0 0 0 0 0 0 0 0 0 0 0 0 0 0 0 0 0 0 127 0" result="hardAlpha"/>
<feOffset dx="-4" dy="7"/>
<feGaussianBlur stdDeviation="1.5"/>
<feColorMatrix type="matrix" values="0 0 0 0 0.349883 0 0 0 0 0.556512 0 0 0 0 0.689595 0 0 0 0.143985 0"/>
<feBlend mode="normal" in2="BackgroundImageFix" result="effect1_dropShadow_103_807"/>
<feBlend mode="normal" in="SourceGraphic" in2="effect1_dropShadow_103_807" result="shape"/>
</filter>
<filter id="filter2_d_103_807" x="212.338" y="189.876" width="75.1115" height="79.121" filterUnits="userSpaceOnUse" color-interpolation-filters="sRGB">
<feFlood flood-opacity="0" result="BackgroundImageFix"/>
<feColorMatrix in="SourceAlpha" type="matrix" values="0 0 0 0 0 0 0 0 0 0 0 0 0 0 0 0 0 0 127 0" result="hardAlpha"/>
<feOffset dx="-4" dy="7"/>
<feGaussianBlur stdDeviation="1.5"/>
<feColorMatrix type="matrix" values="0 0 0 0 0.349883 0 0 0 0 0.556512 0 0 0 0 0.689595 0 0 0 0.143985 0"/>
<feBlend mode="normal" in2="BackgroundImageFix" result="effect1_dropShadow_103_807"/>
<feBlend mode="normal" in="SourceGraphic" in2="effect1_dropShadow_103_807" result="shape"/>
</filter>
<filter id="filter3_d_103_807" x="277.923" y="165.063" width="57.4948" height="29.4957" filterUnits="userSpaceOnUse" color-interpolation-filters="sRGB">
<feFlood flood-opacity="0" result="BackgroundImageFix"/>
<feColorMatrix in="SourceAlpha" type="matrix" values="0 0 0 0 0 0 0 0 0 0 0 0 0 0 0 0 0 0 127 0" result="hardAlpha"/>
<feOffset dx="-4" dy="7"/>
<feGaussianBlur stdDeviation="1.5"/>
<feColorMatrix type="matrix" values="0 0 0 0 0.349883 0 0 0 0 0.556512 0 0 0 0 0.689595 0 0 0 0.143985 0"/>
<feBlend mode="normal" in2="BackgroundImageFix" result="effect1_dropShadow_103_807"/>
<feBlend mode="normal" in="SourceGraphic" in2="effect1_dropShadow_103_807" result="shape"/>
</filter>
<filter id="filter4_d_103_807" x="280.288" y="189.876" width="57.4944" height="29.4957" filterUnits="userSpaceOnUse" color-interpolation-filters="sRGB">
<feFlood flood-opacity="0" result="BackgroundImageFix"/>
<feColorMatrix in="SourceAlpha" type="matrix" values="0 0 0 0 0 0 0 0 0 0 0 0 0 0 0 0 0 0 127 0" result="hardAlpha"/>
<feOffset dx="-4" dy="7"/>
<feGaussianBlur stdDeviation="1.5"/>
<feColorMatrix type="matrix" values="0 0 0 0 0.349883 0 0 0 0 0.556512 0 0 0 0 0.689595 0 0 0 0.143985 0"/>
<feBlend mode="normal" in2="BackgroundImageFix" result="effect1_dropShadow_103_807"/>
<feBlend mode="normal" in="SourceGraphic" in2="effect1_dropShadow_103_807" result="shape"/>
</filter>
<linearGradient id="paint0_linear_103_807" x1="289.767" y1="227.704" x2="292.591" y2="256.004" gradientUnits="userSpaceOnUse">
<stop stop-color="#D3F7FF"/>
<stop offset="1" stop-color="#DFF4FF"/>
</linearGradient>
<linearGradient id="paint1_linear_103_807" x1="298.644" y1="217.643" x2="298.644" y2="223.548" gradientUnits="userSpaceOnUse">
<stop stop-color="#A0EFFF"/>
<stop offset="1" stop-color="#56C1F6"/>
</linearGradient>
<linearGradient id="paint2_linear_103_807" x1="299.235" y1="225.913" x2="299.235" y2="231.819" gradientUnits="userSpaceOnUse">
<stop stop-color="#A0EFFF"/>
<stop offset="1" stop-color="#56C1F6"/>
</linearGradient>
<linearGradient id="paint3_linear_103_807" x1="303.355" y1="242.455" x2="303.355" y2="250.986" gradientUnits="userSpaceOnUse">
<stop stop-color="#A0EFFF"/>
<stop offset="1" stop-color="#56C1F6"/>
</linearGradient>
<linearGradient id="paint4_linear_103_807" x1="295.689" y1="170.38" x2="295.689" y2="180.223" gradientUnits="userSpaceOnUse">
<stop stop-color="#A0EFFF"/>
<stop offset="1" stop-color="#56C1F6"/>
</linearGradient>
<linearGradient id="paint5_linear_103_807" x1="297.439" y1="194.011" x2="297.439" y2="206.479" gradientUnits="userSpaceOnUse">
<stop stop-color="#A0EFFF"/>
<stop offset="1" stop-color="#56C1F6"/>
</linearGradient>
</defs>
</svg>
