<svg width="163" height="48" viewBox="0 0 163 48" fill="none" xmlns="http://www.w3.org/2000/svg">
<g clip-path="url(#clip0_32_412)">
<path d="M0.919998 6.4C0.919998 2.86538 3.78538 0 7.32 0H156.44C159.975 0 162.84 2.86538 162.84 6.4V41.6C162.84 45.1346 159.975 48 156.44 48H7.32C3.78538 48 0.919998 45.1346 0.919998 41.6V6.4Z" fill="black"/>
<path fill-rule="evenodd" clip-rule="evenodd" d="M0.919998 41.6V6.4C0.919998 2.86538 3.78537 0 7.32 0H156.44C159.975 0 162.84 2.86538 162.84 6.4V41.6C162.84 45.1346 159.975 48 156.44 48H7.32C3.78538 48 0.919998 45.1346 0.919998 41.6ZM1.88 41.6V6.4C1.88 3.39557 4.31557 0.96 7.32 0.96H156.44C159.444 0.96 161.88 3.39557 161.88 6.4V41.6C161.88 44.6044 159.444 47.04 156.44 47.04H7.32C4.31557 47.04 1.88 44.6044 1.88 41.6Z" fill="white" fill-opacity="0.3"/>
<path d="M37.5103 24.9776C37.4938 22.1643 38.7684 20.0441 41.3424 18.4807C39.9028 16.4182 37.7248 15.2838 34.8538 15.0652C32.1354 14.8507 29.1613 16.6492 28.0722 16.6492C26.9214 16.6492 24.2896 15.1395 22.2189 15.1395C17.9454 15.2055 13.4037 18.5467 13.4037 25.3447C13.4037 27.3536 13.7709 29.4285 14.5051 31.5652C15.4869 34.3785 19.0261 41.2713 22.718 41.16C24.6485 41.1146 26.0139 39.7905 28.526 39.7905C30.9639 39.7905 32.2261 41.16 34.3794 41.16C38.1043 41.1063 41.3053 34.8405 42.2375 32.019C37.2421 29.6636 37.5103 25.122 37.5103 24.9776ZM33.1749 12.3963C35.2663 9.91309 35.0765 7.65259 35.0146 6.83997C33.1666 6.94722 31.0299 8.09809 29.813 9.51297C28.4724 11.031 27.6845 12.9078 27.8536 15.024C29.8501 15.1766 31.6734 14.1495 33.1749 12.3963Z" fill="white"/>
<path d="M60.0413 34.7353H57.9226L56.7621 31.0716H52.7282L51.6227 34.7353H49.56L53.5566 22.2626H56.0251L60.0413 34.7353ZM56.4122 29.5346L55.3627 26.2777C55.2517 25.945 55.0437 25.1614 54.7367 23.928H54.6994C54.5772 24.4585 54.3804 25.242 54.1098 26.2777L53.0789 29.5346H56.4122Z" fill="white"/>
<path d="M70.3191 30.1279C70.3191 31.6575 69.9077 32.8665 69.0849 33.7541C68.3479 34.5442 67.4327 34.9387 66.3403 34.9387C65.1611 34.9387 64.314 34.5132 63.7981 33.6622H63.7608V38.4H61.7718V28.7024C61.7718 27.7408 61.7466 26.7539 61.6981 25.7416H63.4473L63.5583 27.1672H63.5956C64.2589 26.0931 65.2656 25.557 66.6164 25.557C67.6725 25.557 68.5541 25.976 69.2594 26.8148C69.9665 27.6545 70.3191 28.7586 70.3191 30.1279ZM68.2929 30.201C68.2929 29.3256 68.0969 28.604 67.7033 28.036C67.2732 27.4437 66.6957 27.1475 65.9718 27.1475C65.4811 27.1475 65.0351 27.3125 64.6368 27.6377C64.2375 27.9657 63.9763 28.394 63.8541 28.9245C63.7925 29.1719 63.7617 29.3744 63.7617 29.5337V31.0333C63.7617 31.6875 63.9613 32.2395 64.3606 32.6903C64.7599 33.1411 65.2786 33.3661 65.9167 33.3661C66.6659 33.3661 67.2489 33.0755 67.6659 32.4963C68.0839 31.9162 68.2929 31.1514 68.2929 30.201Z" fill="white"/>
<path d="M80.616 30.1279C80.616 31.6575 80.2046 32.8665 79.3809 33.7541C78.6448 34.5442 77.7296 34.9387 76.6372 34.9387C75.458 34.9387 74.6109 34.5132 74.0959 33.6622H74.0586V38.4H72.0696V28.7024C72.0696 27.7408 72.0444 26.7539 71.9959 25.7416H73.7451L73.8562 27.1672H73.8935C74.5558 26.0931 75.5625 25.557 76.9142 25.557C77.9694 25.557 78.851 25.976 79.5581 26.8148C80.2625 27.6545 80.616 28.7586 80.616 30.1279ZM78.5898 30.201C78.5898 29.3256 78.3929 28.604 77.9992 28.036C77.5691 27.4437 76.9935 27.1475 76.2687 27.1475C75.777 27.1475 75.332 27.3125 74.9327 27.6377C74.5334 27.9657 74.2732 28.394 74.151 28.9245C74.0903 29.1719 74.0586 29.3744 74.0586 29.5337V31.0333C74.0586 31.6875 74.2582 32.2395 74.6557 32.6903C75.0549 33.1402 75.5737 33.3661 76.2136 33.3661C76.9628 33.3661 77.5458 33.0755 77.9628 32.4963C78.3808 31.9162 78.5898 31.1514 78.5898 30.201Z" fill="white"/>
<path d="M92.1283 31.2377C92.1283 32.2986 91.7617 33.1618 91.0256 33.8282C90.2168 34.5564 89.0908 34.9201 87.6438 34.9201C86.3079 34.9201 85.2369 34.6614 84.4262 34.1431L84.8871 32.4777C85.7603 33.0081 86.7184 33.2743 87.7623 33.2743C88.5114 33.2743 89.0945 33.1037 89.5134 32.7644C89.9304 32.4252 90.1384 31.9697 90.1384 31.4017C90.1384 30.8956 89.9668 30.4692 89.6225 30.1233C89.2802 29.7775 88.7083 29.456 87.9097 29.1589C85.736 28.3444 84.6501 27.1513 84.6501 25.5824C84.6501 24.5571 85.0308 23.7164 85.7929 23.0622C86.5523 22.4071 87.5655 22.08 88.8324 22.08C89.9621 22.08 90.9006 22.2777 91.6498 22.6723L91.1525 24.3012C90.4528 23.9188 89.6617 23.7276 88.7764 23.7276C88.0767 23.7276 87.53 23.901 87.1382 24.2459C86.807 24.5543 86.641 24.9301 86.641 25.3753C86.641 25.8683 86.8303 26.276 87.211 26.5965C87.5421 26.8927 88.1439 27.2132 89.0171 27.559C90.0853 27.9911 90.8699 28.4963 91.3746 29.0755C91.8774 29.6528 92.1283 30.3754 92.1283 31.2377Z" fill="white"/>
<path d="M98.7041 27.2414H96.5118V31.608C96.5118 32.7186 96.898 33.2735 97.6723 33.2735C98.0278 33.2735 98.3226 33.2425 98.5558 33.1807L98.6108 34.6981C98.219 34.8452 97.7031 34.9192 97.0641 34.9192C96.2785 34.9192 95.6647 34.6784 95.2216 34.1976C94.7803 33.7158 94.5583 32.9079 94.5583 31.7729V27.2395H93.2522V25.74H94.5583V24.0932L96.5118 23.5009V25.74H98.7041V27.2414Z" fill="white"/>
<path d="M108.596 30.1645C108.596 31.5469 108.202 32.6819 107.417 33.5694C106.593 34.4833 105.5 34.9387 104.137 34.9387C102.823 34.9387 101.777 34.5011 100.997 33.6257C100.217 32.7503 99.8275 31.6453 99.8275 30.3135C99.8275 28.9198 100.229 27.7783 101.034 26.8907C101.837 26.0022 102.921 25.558 104.284 25.558C105.598 25.558 106.655 25.9956 107.452 26.872C108.215 27.722 108.596 28.8195 108.596 30.1645ZM106.532 30.2291C106.532 29.3997 106.356 28.6883 105.999 28.0951C105.582 27.3771 104.986 27.0191 104.213 27.0191C103.414 27.0191 102.806 27.3781 102.389 28.0951C102.032 28.6893 101.856 29.4119 101.856 30.2666C101.856 31.0961 102.032 31.8074 102.389 32.3998C102.819 33.1177 103.42 33.4757 104.195 33.4757C104.955 33.4757 105.551 33.1102 105.981 32.381C106.348 31.7765 106.532 31.0577 106.532 30.2291Z" fill="white"/>
<path d="M115.061 27.499C114.864 27.4624 114.654 27.4437 114.434 27.4437C113.734 27.4437 113.193 27.7089 112.813 28.2403C112.481 28.7089 112.315 29.3013 112.315 30.0164V34.7354H110.327L110.346 28.574C110.346 27.5374 110.321 26.5936 110.271 25.7426H112.004L112.076 27.4633H112.131C112.341 26.872 112.673 26.3958 113.126 26.0388C113.569 25.7173 114.048 25.557 114.564 25.557C114.747 25.557 114.913 25.5701 115.061 25.5936V27.499Z" fill="white"/>
<path d="M123.956 29.8131C123.956 30.1711 123.932 30.4729 123.883 30.7194H117.916C117.939 31.6079 118.228 32.2874 118.782 32.756C119.285 33.1749 119.935 33.3849 120.733 33.3849C121.617 33.3849 122.423 33.2433 123.148 32.9594L123.459 34.3465C122.612 34.7176 121.612 34.9022 120.458 34.9022C119.07 34.9022 117.98 34.4917 117.187 33.6717C116.396 32.8516 116 31.7503 116 30.3688C116 29.0127 116.368 27.8833 117.106 26.9826C117.879 26.021 118.923 25.5402 120.236 25.5402C121.526 25.5402 122.503 26.021 123.166 26.9826C123.692 27.7465 123.956 28.6912 123.956 29.8131ZM122.059 29.2948C122.072 28.7024 121.942 28.1907 121.673 27.7586C121.329 27.2029 120.8 26.9254 120.088 26.9254C119.438 26.9254 118.909 27.1963 118.505 27.7399C118.173 28.172 117.977 28.6903 117.916 29.2938H122.059V29.2948Z" fill="white"/>
<path d="M56.0073 13.8752C56.0073 15.2234 55.6048 16.2383 54.801 16.9199C54.0565 17.5487 52.9984 17.8637 51.6279 17.8637C50.9483 17.8637 50.3668 17.8339 49.88 17.7744V10.4079C50.5151 10.3048 51.1992 10.2521 51.938 10.2521C53.2435 10.2521 54.2275 10.5373 54.8911 11.1078C55.6345 11.7527 56.0073 12.6748 56.0073 13.8752ZM54.7474 13.9084C54.7474 13.0345 54.5171 12.3644 54.0565 11.897C53.5958 11.4308 52.9231 11.1971 52.0372 11.1971C51.661 11.1971 51.3406 11.2223 51.0749 11.275V16.8752C51.222 16.8981 51.4911 16.9084 51.8821 16.9084C52.7966 16.9084 53.5023 16.653 53.9995 16.1421C54.4966 15.6312 54.7474 14.8867 54.7474 13.9084Z" fill="white"/>
<path d="M62.6877 15.053C62.6877 15.8834 62.4517 16.5638 61.9796 17.0976C61.4848 17.6463 60.8292 17.92 60.0106 17.92C59.2216 17.92 58.5933 17.6577 58.1247 17.1308C57.6572 16.6051 57.4235 15.9418 57.4235 15.1423C57.4235 14.3061 57.6641 13.62 58.1475 13.0873C58.6309 12.5547 59.2808 12.2878 60.0995 12.2878C60.8885 12.2878 61.5224 12.5501 62.0024 13.0759C62.4585 13.5868 62.6877 14.2465 62.6877 15.053ZM61.4483 15.0919C61.4483 14.5936 61.3411 14.1664 61.1279 13.8101C60.8771 13.3794 60.5202 13.1641 60.0562 13.1641C59.5761 13.1641 59.2113 13.3794 58.9605 13.8101C58.7461 14.1664 58.6401 14.6005 58.6401 15.1137C58.6401 15.6119 58.7472 16.0392 58.9605 16.3954C59.2193 16.8261 59.5796 17.0415 60.0448 17.0415C60.5008 17.0415 60.8588 16.8227 61.1165 16.384C61.3377 16.0209 61.4483 15.5902 61.4483 15.0919Z" fill="white"/>
<path d="M71.6452 12.3977L69.9635 17.7974H68.8689L68.1723 15.4527C67.9955 14.8673 67.8519 14.2854 67.7401 13.7081H67.7185C67.6147 14.3015 67.4711 14.8822 67.2864 15.4527L66.5464 17.7974H65.4393L63.8578 12.3977H65.0858L65.6935 14.9647C65.8406 15.5718 65.9615 16.1502 66.0584 16.6978H66.08C66.169 16.2465 66.3161 15.6714 66.5236 14.9761L67.2864 12.3989H68.2601L68.9909 14.9212C69.1676 15.5363 69.3113 16.1285 69.4219 16.6989H69.455C69.5359 16.1434 69.6579 15.5512 69.8198 14.9212L70.472 12.3989H71.6452V12.3977Z" fill="white"/>
<path d="M77.8394 17.7974H76.6445V14.7047C76.6445 13.7517 76.2842 13.2752 75.5613 13.2752C75.2067 13.2752 74.9206 13.4057 74.6982 13.6681C74.4782 13.9304 74.3664 14.2396 74.3664 14.5936V17.7963H73.1715V13.9407C73.1715 13.4665 73.1567 12.9521 73.1282 12.3954H74.1783L74.2342 13.2397H74.2672C74.4063 12.9773 74.6139 12.7609 74.8864 12.5879C75.2102 12.3863 75.5727 12.2843 75.9695 12.2843C76.4712 12.2843 76.8885 12.447 77.2203 12.7735C77.633 13.1732 77.8394 13.77 77.8394 14.5627V17.7974Z" fill="white"/>
<path d="M81.1343 17.7974H79.9406V9.92004H81.1343V17.7974Z" fill="white"/>
<path d="M88.1692 15.053C88.1692 15.8834 87.9332 16.5638 87.4612 17.0976C86.9663 17.6463 86.3096 17.92 85.4921 17.92C84.702 17.92 84.0737 17.6577 83.6062 17.1308C83.1388 16.6051 82.905 15.9418 82.905 15.1423C82.905 14.3061 83.1456 13.62 83.629 13.0873C84.1125 12.5547 84.7624 12.2878 85.5799 12.2878C86.37 12.2878 87.0028 12.5501 87.484 13.0759C87.94 13.5868 88.1692 14.2465 88.1692 15.053ZM86.9287 15.0919C86.9287 14.5936 86.8215 14.1664 86.6083 13.8101C86.3586 13.3794 86.0006 13.1641 85.5377 13.1641C85.0565 13.1641 84.6917 13.3794 84.442 13.8101C84.2276 14.1664 84.1216 14.6005 84.1216 15.1137C84.1216 15.6119 84.2288 16.0392 84.442 16.3954C84.7008 16.8261 85.0611 17.0415 85.5263 17.0415C85.9824 17.0415 86.3392 16.8227 86.5969 16.384C86.8193 16.0209 86.9287 15.5902 86.9287 15.0919Z" fill="white"/>
<path d="M93.9523 17.7975H92.8794L92.7904 17.1755H92.7574C92.3902 17.6715 91.8669 17.92 91.1873 17.92C90.68 17.92 90.2695 17.7562 89.9605 17.4309C89.68 17.1354 89.5398 16.7677 89.5398 16.3313C89.5398 15.6715 89.8134 15.1686 90.3641 14.8204C90.9137 14.4722 91.6867 14.3015 92.6821 14.3095V14.2087C92.6821 13.4974 92.3104 13.1423 91.5659 13.1423C91.0357 13.1423 90.5682 13.2763 90.1646 13.5421L89.9218 12.754C90.4212 12.4436 91.038 12.2878 91.7654 12.2878C93.1701 12.2878 93.8747 13.0324 93.8747 14.5215V16.51C93.8747 17.0495 93.901 17.479 93.9523 17.7975ZM92.7118 15.9418V15.1091C91.3937 15.0862 90.7347 15.4493 90.7347 16.1973C90.7347 16.4791 90.8099 16.6898 90.9639 16.8307C91.1178 16.9716 91.3139 17.0415 91.5476 17.0415C91.8099 17.0415 92.055 16.9579 92.2785 16.7918C92.5031 16.6245 92.6411 16.4126 92.6924 16.1526C92.7049 16.0942 92.7118 16.0232 92.7118 15.9418Z" fill="white"/>
<path d="M100.742 17.7974H99.6815L99.6257 16.9303H99.5926C99.254 17.5901 98.677 17.9199 97.8664 17.9199C97.2188 17.9199 96.6794 17.6645 96.2519 17.1536C95.8243 16.6428 95.6111 15.9795 95.6111 15.1651C95.6111 14.2911 95.8426 13.5832 96.3078 13.0426C96.7581 12.5386 97.31 12.2866 97.9667 12.2866C98.6884 12.2866 99.1935 12.5306 99.4809 13.0197H99.5037V9.92004H100.7V16.3426C100.7 16.8684 100.713 17.3529 100.742 17.7974ZM99.5037 15.5202V14.6199C99.5037 14.4641 99.4923 14.3381 99.4706 14.2419C99.4033 13.9532 99.2585 13.7104 99.0385 13.5145C98.8161 13.3186 98.5482 13.2201 98.2392 13.2201C97.7934 13.2201 97.4445 13.3977 97.188 13.7539C96.9337 14.1101 96.8049 14.5649 96.8049 15.1204C96.8049 15.6542 96.9269 16.0872 97.172 16.4205C97.4308 16.7756 97.7797 16.9532 98.2164 16.9532C98.6086 16.9532 98.9222 16.8054 99.1605 16.5087C99.3908 16.235 99.5037 15.9051 99.5037 15.5202Z" fill="white"/>
<path d="M110.962 15.053C110.962 15.8834 110.726 16.5638 110.254 17.0976C109.759 17.6463 109.104 17.92 108.285 17.92C107.497 17.92 106.869 17.6577 106.399 17.1308C105.931 16.6051 105.698 15.9418 105.698 15.1423C105.698 14.3061 105.938 13.62 106.422 13.0873C106.905 12.5547 107.555 12.2878 108.375 12.2878C109.163 12.2878 109.798 12.5501 110.277 13.0759C110.733 13.5868 110.962 14.2465 110.962 15.053ZM109.724 15.0919C109.724 14.5936 109.616 14.1664 109.403 13.8101C109.151 13.3794 108.795 13.1641 108.33 13.1641C107.851 13.1641 107.487 13.3794 107.235 13.8101C107.02 14.1664 106.914 14.6005 106.914 15.1137C106.914 15.6119 107.021 16.0392 107.235 16.3954C107.493 16.8261 107.854 17.0415 108.319 17.0415C108.775 17.0415 109.134 16.8227 109.392 16.384C109.612 16.0209 109.724 15.5902 109.724 15.0919Z" fill="white"/>
<path d="M117.386 17.7974H116.193V14.7047C116.193 13.7517 115.832 13.2752 115.108 13.2752C114.754 13.2752 114.468 13.4057 114.246 13.6681C114.025 13.9304 113.915 14.2396 113.915 14.5936V17.7963H112.718V13.9407C112.718 13.4665 112.705 12.9521 112.676 12.3954H113.725L113.781 13.2397H113.814C113.954 12.9773 114.162 12.7609 114.433 12.5879C114.758 12.3863 115.12 12.2843 115.518 12.2843C116.018 12.2843 116.435 12.447 116.767 12.7735C117.181 13.1732 117.386 13.77 117.386 14.5627V17.7974Z" fill="white"/>
<path d="M125.428 13.2969H124.112V15.92C124.112 16.5867 124.346 16.92 124.809 16.92C125.023 16.92 125.201 16.9017 125.341 16.8639L125.372 17.7745C125.136 17.8639 124.826 17.9086 124.444 17.9086C123.972 17.9086 123.605 17.7642 123.339 17.4756C123.072 17.1869 122.94 16.7013 122.94 16.0197V13.2969H122.154V12.3978H122.94V11.4081L124.111 11.053V12.3966H125.427V13.2969H125.428Z" fill="white"/>
<path d="M131.754 17.7974H130.558V14.7275C130.558 13.7596 130.197 13.2751 129.476 13.2751C128.922 13.2751 128.543 13.5557 128.336 14.117C128.3 14.235 128.28 14.3793 128.28 14.5489V17.7962H127.086V9.92004H128.28V13.1743H128.302C128.679 12.5821 129.218 12.2866 129.917 12.2866C130.412 12.2866 130.821 12.4492 131.146 12.7757C131.551 13.1823 131.754 13.7871 131.754 14.5867V17.7974Z" fill="white"/>
<path d="M138.28 14.8421C138.28 15.0574 138.264 15.2384 138.235 15.3862H134.652C134.668 15.92 134.839 16.3266 135.17 16.6084C135.474 16.8604 135.865 16.9864 136.344 16.9864C136.874 16.9864 137.357 16.9016 137.793 16.731L137.98 17.5649C137.47 17.7871 136.87 17.8982 136.176 17.8982C135.344 17.8982 134.688 17.6519 134.214 17.1594C133.737 16.6668 133.501 16.0059 133.501 15.1766C133.501 14.3621 133.721 13.684 134.165 13.1434C134.628 12.5661 135.254 12.2774 136.044 12.2774C136.817 12.2774 137.404 12.5661 137.801 13.1434C138.121 13.6016 138.28 14.1686 138.28 14.8421ZM137.139 14.5317C137.149 14.1754 137.07 13.8685 136.908 13.6096C136.7 13.2763 136.385 13.109 135.957 13.109C135.567 13.109 135.249 13.2717 135.006 13.5981C134.808 13.8581 134.69 14.1686 134.652 14.5317H137.139Z" fill="white"/>
</g>
<defs>
<clipPath id="clip0_32_412">
<rect width="161.92" height="48" fill="white" transform="translate(0.919998)"/>
</clipPath>
</defs>
</svg>
