<svg width="232" height="315" viewBox="0 0 232 315" fill="none" xmlns="http://www.w3.org/2000/svg">
<path d="M-1.54224 315C47.4027 310.816 141.735 277.657 127.504 178.494C109.716 54.5412 150.791 56.8947 162.111 52.9721C173.43 49.0496 217.74 29.4367 231 -3.51294" stroke="#C1E5C0" stroke-width="2"/>
<path d="M-21.5945 315C27.3504 310.816 121.683 277.657 107.452 178.494C89.6635 54.5412 130.738 56.8947 142.058 52.9721C153.378 49.0496 197.687 29.4367 210.948 -3.51294" stroke="#C1E5C0" stroke-width="2"/>
<path d="M-41 315C7.9449 310.816 102.277 277.657 88.0464 178.494C70.258 54.5412 111.333 56.8947 122.653 52.9721C133.973 49.0496 178.282 29.4367 191.542 -3.51294" stroke="#C1E5C0" stroke-width="2"/>
</svg>
