<svg width="383" height="315" viewBox="0 0 383 315" fill="none" xmlns="http://www.w3.org/2000/svg">
<path d="M372.799 319.113C382.916 262.397 373.986 145.469 257.332 131.49C111.514 114.017 126.648 68.2 125.641 54.1858C124.633 40.1716 115.865 -15.9765 82.5633 -40.9999" stroke="#C1E5C0" stroke-width="2"/>
<path d="M366.712 341.829C376.829 285.113 367.899 168.185 251.245 154.206C105.427 136.732 120.561 90.9158 119.554 76.9016C118.546 62.8875 109.778 6.73931 76.4766 -18.2841" stroke="#C1E5C0" stroke-width="2"/>
<path d="M360.822 363.812C370.939 307.096 362.009 190.168 245.355 176.189C99.537 158.716 114.671 112.899 113.664 98.8848C112.656 84.8706 103.888 28.7225 70.5862 3.69907" stroke="#C1E5C0" stroke-width="2"/>
</svg>
