<svg width="406" height="494" viewBox="0 0 406 494" fill="none" xmlns="http://www.w3.org/2000/svg">
<path d="M-5.05447e-05 71.5172C5.31375 160.23 47.4256 331.207 173.363 305.414C330.784 273.172 327.795 347.621 332.777 368.138C337.758 388.655 362.667 468.965 404.513 493" stroke="#C1E5C0" stroke-width="2"/>
<path d="M-5.05447e-05 35.1725C5.31375 123.885 47.4256 294.862 173.363 269.069C330.784 236.828 327.795 311.276 332.777 331.793C337.758 352.31 362.667 432.621 404.513 456.655" stroke="#C1E5C0" stroke-width="2"/>
<path d="M-5.05447e-05 -1.76818e-05C5.31375 88.7126 47.4256 259.69 173.363 233.897C330.784 201.655 327.795 276.103 332.777 296.621C337.758 317.138 362.667 397.448 404.513 421.483" stroke="#C1E5C0" stroke-width="2"/>
</svg>
